<svg width="47" height="47" viewBox="0 0 47 47" fill="none" xmlns="http://www.w3.org/2000/svg">
    <path d="M34.5059 18.8391H24.2246C23.4217 18.8391 22.7559 18.1733 22.7559 17.3704C22.7559 16.5674 23.4217 15.9016 24.2246 15.9016H34.5059C35.3088 15.9016 35.9746 16.5674 35.9746 17.3704C35.9746 18.1733 35.3284 18.8391 34.5059 18.8391Z" fill="#3C3C3C"/>
    <path d="M13.9424 20.3274C13.5703 20.3274 13.1982 20.1903 12.9045 19.8965L11.4357 18.4278C10.8678 17.8599 10.8678 16.9199 11.4357 16.352C12.0036 15.784 12.9436 15.784 13.5115 16.352L13.9424 16.7828L17.3107 13.4145C17.8786 12.8465 18.8186 12.8465 19.3865 13.4145C19.9545 13.9824 19.9545 14.9224 19.3865 15.4903L14.9803 19.8965C14.7061 20.1707 14.334 20.3274 13.9424 20.3274Z" fill="#3C3C3C"/>
    <path d="M34.5059 32.5476H24.2246C23.4217 32.5476 22.7559 31.8818 22.7559 31.0789C22.7559 30.2759 23.4217 29.6101 24.2246 29.6101H34.5059C35.3088 29.6101 35.9746 30.2759 35.9746 31.0789C35.9746 31.8818 35.3284 32.5476 34.5059 32.5476Z" fill="#3C3C3C"/>
    <path d="M13.9424 34.0359C13.5703 34.0359 13.1982 33.8988 12.9045 33.605L11.4357 32.1363C10.8678 31.5684 10.8678 30.6284 11.4357 30.0605C12.0036 29.4925 12.9436 29.4925 13.5115 30.0605L13.9424 30.4913L17.3107 27.123C17.8786 26.555 18.8186 26.555 19.3865 27.123C19.9545 27.6909 19.9545 28.6309 19.3865 29.1988L14.9803 33.605C14.7061 33.8792 14.334 34.0359 13.9424 34.0359Z" fill="#3C3C3C"/>
    <path d="M29.3743 44.5522H17.6243C6.9906 44.5522 2.44727 40.0088 2.44727 29.3751V17.6251C2.44727 6.99133 6.9906 2.448 17.6243 2.448H29.3743C40.0081 2.448 44.5514 6.99133 44.5514 17.6251V29.3751C44.5514 40.0088 40.0081 44.5522 29.3743 44.5522ZM17.6243 5.3855C8.59643 5.3855 5.38477 8.59716 5.38477 17.6251V29.3751C5.38477 38.403 8.59643 41.6147 17.6243 41.6147H29.3743C38.4023 41.6147 41.6139 38.403 41.6139 29.3751V17.6251C41.6139 8.59716 38.4023 5.3855 29.3743 5.3855H17.6243Z" fill="#3C3C3C"/>
</svg>