<svg width="47" height="47" viewBox="0 0 47 47" fill="none" xmlns="http://www.w3.org/2000/svg">
    <path d="M30.9607 39.5192C30.4515 39.5192 29.9227 39.4996 29.3548 39.4408C28.3365 39.3625 27.1811 39.1667 25.9865 38.8729L22.6965 38.0896C13.6686 35.955 10.7115 31.1767 12.8265 22.1683L14.7457 13.9629C15.1765 12.1025 15.6857 10.5946 16.3123 9.34126C19.6807 2.38918 26.1236 3.01584 30.7061 4.09293L33.9765 4.85668C38.559 5.93376 41.4573 7.63751 43.0827 10.2421C44.6886 12.8467 44.9432 16.1954 43.8661 20.7779L41.9469 28.9638C40.2627 36.1313 36.7573 39.5192 30.9607 39.5192ZM25.6927 6.36459C22.4223 6.36459 20.3465 7.71584 18.9561 10.6142C18.4469 11.6717 17.9965 12.9838 17.6048 14.6288L15.6857 22.8342C13.9427 30.2367 15.9598 33.4679 23.3623 35.2304L26.6523 36.0138C27.7098 36.2683 28.7086 36.425 29.6094 36.5033C34.9361 37.0321 37.5798 34.7017 39.0682 28.2979L40.9873 20.1121C41.8686 16.3325 41.7511 13.6888 40.5761 11.7892C39.4011 9.88959 37.0902 8.59709 33.2911 7.71584L30.0207 6.95209C28.3952 6.56043 26.9461 6.36459 25.6927 6.36459Z" fill="#3C3C3C"/>
    <path d="M16.3137 43.573C11.2808 43.573 8.06913 40.5572 6.01288 34.1926L3.50621 26.4572C0.725376 17.8405 3.21246 12.9839 11.79 10.203L14.8841 9.20428C15.9025 8.89095 16.6662 8.67553 17.3516 8.55803C17.9195 8.44053 18.4679 8.65595 18.8008 9.10636C19.1337 9.55678 19.1925 10.1443 18.9575 10.6534C18.4483 11.6914 17.9979 13.0034 17.6258 14.6484L15.7066 22.8539C13.9637 30.2564 15.9808 33.4876 23.3833 35.2501L26.6733 36.0334C27.7308 36.288 28.7295 36.4447 29.6304 36.523C30.257 36.5818 30.7662 37.0126 30.9425 37.6197C31.0991 38.2268 30.8641 38.8534 30.355 39.2059C29.0625 40.0872 27.437 40.8314 25.3808 41.4972L22.2866 42.5155C20.0345 43.2205 18.0762 43.573 16.3137 43.573ZM15.2366 12.1809L12.7104 13.0034C5.71913 15.2555 4.05454 18.5455 6.30663 25.5564L8.81329 33.2918C11.085 40.283 14.375 41.9672 21.3662 39.7151L24.4604 38.6968C24.5779 38.6576 24.6758 38.6184 24.7933 38.5793L22.7175 38.0897C13.6895 35.9551 10.7325 31.1768 12.8475 22.1684L14.7666 13.963C14.9037 13.3364 15.0604 12.7293 15.2366 12.1809Z" fill="#3C3C3C"/>
    <path d="M34.2512 20.5821C34.1337 20.5821 34.0162 20.5626 33.8791 20.543L24.3812 18.1342C23.5979 17.9384 23.1279 17.1355 23.3237 16.3521C23.5195 15.5688 24.3224 15.0988 25.1058 15.2946L34.6037 17.7034C35.387 17.8992 35.857 18.7021 35.6612 19.4855C35.5045 20.1317 34.8974 20.5821 34.2512 20.5821Z" fill="#3C3C3C"/>
    <path d="M28.5126 27.2012C28.3951 27.2012 28.2776 27.1816 28.1405 27.162L22.4417 25.7128C21.6584 25.517 21.1884 24.7141 21.3842 23.9307C21.5801 23.1474 22.383 22.6774 23.1663 22.8732L28.8651 24.3224C29.6484 24.5182 30.1184 25.3212 29.9226 26.1045C29.7659 26.7703 29.1784 27.2012 28.5126 27.2012Z" fill="#3C3C3C"/>
</svg>