<svg width="47" height="47" viewBox="0 0 47 47" fill="none" xmlns="http://www.w3.org/2000/svg">
    <path d="M15.666 11.2605C14.8631 11.2605 14.1973 10.5947 14.1973 9.79175V3.91675C14.1973 3.11383 14.8631 2.448 15.666 2.448C16.4689 2.448 17.1348 3.11383 17.1348 3.91675V9.79175C17.1348 10.5947 16.4689 11.2605 15.666 11.2605Z" fill="#3C3C3C"/>
    <path d="M31.334 11.2605C30.5311 11.2605 29.8652 10.5947 29.8652 9.79175V3.91675C29.8652 3.11383 30.5311 2.448 31.334 2.448C32.1369 2.448 32.8027 3.11383 32.8027 3.91675V9.79175C32.8027 10.5947 32.1369 11.2605 31.334 11.2605Z" fill="#3C3C3C"/>
    <path d="M16.6458 28.3958C16.1367 28.3958 15.6275 28.1804 15.2554 27.8279C14.9029 27.4558 14.6875 26.9662 14.6875 26.4375C14.6875 26.1829 14.7463 25.9283 14.8442 25.6933C14.9421 25.4583 15.0792 25.2429 15.2554 25.0471C15.98 24.3225 17.2921 24.3225 18.0362 25.0471C18.3887 25.4192 18.6042 25.9283 18.6042 26.4375C18.6042 26.555 18.5846 26.6921 18.565 26.8292C18.5454 26.9467 18.5062 27.0642 18.4475 27.1817C18.4083 27.2992 18.3496 27.4167 18.2713 27.5342C18.1929 27.6321 18.1146 27.73 18.0362 27.8279C17.6642 28.1804 17.155 28.3958 16.6458 28.3958Z" fill="#3C3C3C"/>
    <path d="M23.4993 28.3958C23.2448 28.3958 22.9902 28.3371 22.7552 28.2392C22.5006 28.1412 22.3048 28.0041 22.1089 27.8279C21.7564 27.4558 21.541 26.9662 21.541 26.4375C21.541 26.1829 21.5998 25.9283 21.6977 25.6933C21.7956 25.4583 21.9327 25.2429 22.1089 25.0471C22.3048 24.8708 22.5006 24.7337 22.7552 24.6358C23.4798 24.342 24.3414 24.4987 24.8898 25.0471C25.2423 25.4191 25.4577 25.9283 25.4577 26.4375C25.4577 26.555 25.4381 26.6921 25.4185 26.8291C25.3989 26.9466 25.3598 27.0641 25.301 27.1816C25.2618 27.2991 25.2031 27.4166 25.1248 27.5341C25.066 27.632 24.9681 27.7299 24.8898 27.8279C24.5177 28.1804 24.0085 28.3958 23.4993 28.3958Z" fill="#3C3C3C"/>
    <path d="M16.6458 35.25C16.3912 35.25 16.1367 35.1913 15.9017 35.0934C15.6471 34.9955 15.4317 34.8583 15.2554 34.6821C15.0792 34.5058 14.9421 34.2905 14.8442 34.0359C14.7463 33.8009 14.6875 33.5463 14.6875 33.2917C14.6875 33.0371 14.7463 32.7825 14.8442 32.5475C14.9421 32.2929 15.0792 32.0775 15.2554 31.9013C15.4317 31.725 15.6471 31.5879 15.9017 31.49C16.3717 31.2942 16.92 31.2746 17.39 31.49C17.6446 31.5879 17.86 31.725 18.0362 31.9013C18.2125 32.0775 18.3496 32.2929 18.4475 32.5475C18.5454 32.7825 18.6042 33.0371 18.6042 33.2917C18.6042 33.5463 18.5454 33.8009 18.4475 34.0359C18.3496 34.2905 18.2125 34.5058 18.0362 34.6821C17.86 34.8583 17.6446 34.9955 17.39 35.0934C17.155 35.1913 16.9004 35.25 16.6458 35.25Z" fill="#3C3C3C"/>
    <path d="M40.1452 19.27H6.85352C6.0506 19.27 5.38477 18.6042 5.38477 17.8013C5.38477 16.9984 6.0506 16.3325 6.85352 16.3325H40.1452C40.9481 16.3325 41.6139 16.9984 41.6139 17.8013C41.6139 18.6042 40.9481 19.27 40.1452 19.27Z" fill="#3C3C3C"/>
    <path d="M35.2493 46.5104C32.9581 46.5104 30.7844 45.6879 29.1198 44.18C28.4148 43.5925 27.7881 42.8483 27.2789 41.9867C26.4173 40.5767 25.9473 38.9121 25.9473 37.2083C25.9473 32.0775 30.1185 27.9062 35.2493 27.9062C37.9127 27.9062 40.4585 29.0616 42.221 31.0591C43.7289 32.7825 44.5514 34.9563 44.5514 37.2083C44.5514 38.9121 44.0814 40.5767 43.2002 42.0063C41.5552 44.7871 38.5002 46.5104 35.2493 46.5104ZM35.2493 30.8438C31.7439 30.8438 28.8848 33.7029 28.8848 37.2083C28.8848 38.3638 29.1981 39.4996 29.8052 40.4788C30.1381 41.0663 30.5689 41.5558 31.0389 41.9671C32.2139 43.0246 33.6827 43.5729 35.2493 43.5729C37.5014 43.5729 39.5381 42.4175 40.6935 40.4983C41.3006 39.4996 41.6139 38.3833 41.6139 37.2083C41.6139 35.6808 41.046 34.1925 40.0277 32.9979C38.8135 31.6271 37.0706 30.8438 35.2493 30.8438Z" fill="#3C3C3C"/>
    <path d="M34.1331 40.6158C33.761 40.6158 33.3889 40.4788 33.0952 40.185L31.1564 38.2463C30.5885 37.6784 30.5885 36.7384 31.1564 36.1705C31.7243 35.6025 32.6643 35.6025 33.2322 36.1705L34.1722 37.1105L37.3056 34.2121C37.8931 33.6638 38.8331 33.703 39.3814 34.2905C39.9297 34.878 39.8906 35.818 39.3031 36.3663L35.1318 40.2242C34.8381 40.4788 34.4856 40.6158 34.1331 40.6158Z" fill="#3C3C3C"/>
    <path d="M30.0996 44.5522H15.6667C8.51875 44.5522 4.40625 40.4397 4.40625 33.2917V16.6459C4.40625 9.498 8.51875 5.3855 15.6667 5.3855H31.3333C38.4813 5.3855 42.5938 9.498 42.5938 16.6459V32.0384C42.5938 32.6455 42.2217 33.1938 41.6342 33.4092C41.0663 33.6247 40.42 33.468 40.0088 32.998C38.7946 31.6272 37.0517 30.8438 35.2304 30.8438C31.725 30.8438 28.8658 33.703 28.8658 37.2084C28.8658 38.3638 29.1792 39.4997 29.7862 40.4789C30.1192 41.0664 30.55 41.5559 31.02 41.9671C31.49 42.3588 31.6662 43.0051 31.4508 43.5926C31.2746 44.1605 30.7263 44.5522 30.0996 44.5522ZM15.6667 8.323C10.0658 8.323 7.34375 11.0451 7.34375 16.6459V33.2917C7.34375 38.8926 10.0658 41.6147 15.6667 41.6147H27.0642C26.3396 40.283 25.9479 38.7751 25.9479 37.2084C25.9479 32.0776 30.1192 27.9063 35.25 27.9063C36.7971 27.9063 38.3246 28.298 39.6562 29.0226V16.6459C39.6562 11.0451 36.9342 8.323 31.3333 8.323H15.6667Z" fill="#3C3C3C"/>
</svg>