<svg width="28" height="28" viewBox="0 0 11 19" fill="none" xmlns="http://www.w3.org/2000/svg">
<path d="M2.14998 18.575L10.575 10.175C10.675 10.075 10.7456 9.96667 10.787 9.85C10.829 9.73333 10.85 9.60833 10.85 9.475C10.85 9.34167 10.829 9.21667 10.787 9.1C10.7456 8.98333 10.675 8.875 10.575 8.775L2.14998 0.35C1.91664 0.116667 1.62498 0 1.27498 0C0.924975 0 0.624976 0.125 0.374976 0.375C0.124976 0.625 -2.38419e-05 0.916667 -2.38419e-05 1.25C-2.38419e-05 1.58333 0.124976 1.875 0.374976 2.125L7.72498 9.475L0.374976 16.825C0.141643 17.0583 0.0249758 17.3457 0.0249758 17.687C0.0249758 18.029 0.149976 18.325 0.399976 18.575C0.649976 18.825 0.941643 18.95 1.27498 18.95C1.60831 18.95 1.89998 18.825 2.14998 18.575Z" fill="#2468FF"/>
</svg>
