<svg width="96" height="96" viewBox="0 0 96 96" fill="none" xmlns="http://www.w3.org/2000/svg">
<circle cx="48.387" cy="48.3846" r="41.4729" fill="white"/>
<path d="M47.726 9.20223e-07C57.1675 -0.00185255 66.3976 2.7962 74.2489 8.0403C82.1001 13.2844 88.2199 20.739 91.8344 29.4613C95.4488 38.1837 96.3954 47.7819 94.5546 57.0423C92.7138 66.3027 88.1682 74.8092 81.4926 81.486C74.8171 88.1629 66.3115 92.7101 57.0515 94.5528C47.7915 96.3954 38.193 95.4506 29.47 91.8379C20.7469 88.2252 13.2911 82.1069 8.04551 74.2567C2.79987 66.4064 1.81926e-07 57.1769 0 47.7353C-2.43914e-07 35.0768 5.02796 22.9365 13.978 13.9847C22.9281 5.03283 35.0674 0.00248592 47.726 9.20223e-07ZM71.3031 33.5103C72.3582 32.4553 72.9509 31.0244 72.9509 29.5324C72.9509 28.0404 72.3582 26.6094 71.3031 25.5544C70.2481 24.4994 68.8172 23.9067 67.3252 23.9067C65.8332 23.9067 64.4023 24.4994 63.3473 25.5544L48.5225 40.3792H47.3793L32.5545 25.5544C31.4995 24.4982 30.0681 23.9043 28.5752 23.9034C27.0823 23.9025 25.6502 24.4947 24.5939 25.5497C23.5377 26.6048 22.9438 28.0362 22.9429 29.5291C22.942 31.022 23.5342 32.4541 24.5892 33.5103L42.2065 51.1089V76.2978C42.2661 77.7628 42.8899 79.148 43.9475 80.1634C45.0051 81.1789 46.4144 81.746 47.8806 81.746C49.3468 81.746 50.7561 81.1789 51.8137 80.1634C52.8713 79.148 53.4951 77.7628 53.5547 76.2978V51.2494L71.3031 33.5103Z" fill="#E03638"/>
</svg>
