<svg width="275" height="195" viewBox="0 0 275 195" fill="none" xmlns="http://www.w3.org/2000/svg">
<ellipse cx="137.258" cy="152" rx="137" ry="43" fill="url(#paint0_radial_2106_1058)"/>
<path d="M141.472 15.959V6.25009H149.51V1H128.052V6.25009H136.09V16.0069C130.145 16.3303 124.342 17.5441 118.799 19.6351C117.413 20.1579 116.724 21.6781 117.261 23.0305C117.798 24.3838 119.356 25.058 120.741 24.5311C126.662 22.2986 132.913 21.1654 139.322 21.1654C167.749 21.1654 190.876 43.7266 190.876 71.4584C190.876 99.189 167.749 121.75 139.322 121.75C112.872 121.75 91.0132 102.214 88.1026 77.1572L103.173 89.2885C104.319 90.2111 106.016 90.0524 106.961 88.9333C107.907 87.8155 107.744 86.1611 106.598 85.2382L86.8079 69.3087C86.1141 68.6615 83.9463 68.0809 82.7256 70.092L70.5865 92.1433C69.8835 93.421 70.3353 95.0883 71.6835 95.6975C73.4019 96.4738 74.8421 95.509 75.3269 94.6273L83.136 80.4417C87.5509 106.81 111.063 127 139.322 127C170.716 127 196.258 102.084 196.258 71.4584C196.258 41.535 171.873 17.066 141.472 15.959Z" fill="#2468FF"/>
<path d="M139.322 59.4226C132.52 59.4226 126.986 64.8213 126.986 71.4582C126.986 78.0938 132.52 83.4925 139.322 83.4925C140.948 83.4925 142.499 83.1813 143.922 82.6215L162.338 102.619C163.33 103.697 165.029 103.788 166.138 102.817C167.243 101.849 167.333 100.189 166.34 99.1095L148.384 79.6127C150.415 77.4668 151.658 74.602 151.658 71.4584C151.658 64.8213 146.124 59.4226 139.322 59.4226ZM139.322 78.2424C135.487 78.2424 132.368 75.1996 132.368 71.4582C132.368 67.7168 135.487 64.6727 139.322 64.6727C143.158 64.6727 146.277 67.7168 146.277 71.4582C146.277 75.1996 143.158 78.2424 139.322 78.2424Z" fill="#2468FF"/>
<defs>
<radialGradient id="paint0_radial_2106_1058" cx="0" cy="0" r="1" gradientUnits="userSpaceOnUse" gradientTransform="translate(137.258 152) rotate(90) scale(43 137)">
<stop stop-color="#D6DFFF"/>
<stop offset="1" stop-color="white" stop-opacity="0"/>
</radialGradient>
</defs>
</svg>
