<svg width="275" height="197" viewBox="0 0 275 197" fill="none" xmlns="http://www.w3.org/2000/svg">
<ellipse cx="137.203" cy="154" rx="137" ry="43" fill="url(#paint0_radial_2106_1059)"/>
<g clip-path="url(#clip0_2106_1059)">
<g clip-path="url(#clip1_2106_1059)">
<path d="M121.93 30.4592C120.702 30.4592 119.706 31.4546 119.706 32.6827C119.706 35.3798 117.512 37.5742 114.815 37.5742C112.118 37.5742 109.923 35.3798 109.923 32.6827C109.923 29.9855 112.118 27.7912 114.815 27.7912C116.043 27.7912 117.038 26.7958 117.038 25.5677C117.038 24.3396 116.043 23.3442 114.815 23.3442C109.666 23.3442 105.477 27.5335 105.477 32.6824C105.477 37.8313 109.666 42.0206 114.815 42.0206C119.964 42.0206 124.153 37.8313 124.153 32.6824C124.153 31.4546 123.157 30.4592 121.93 30.4592Z" fill="#2468FF"/>
<path d="M121.93 56.5469C120.702 56.5469 119.706 57.5422 119.706 58.7703C119.706 61.4675 117.512 63.6618 114.815 63.6618C112.118 63.6618 109.923 61.4675 109.923 58.7703C109.923 56.0732 112.118 53.8788 114.815 53.8788C116.043 53.8788 117.038 52.8834 117.038 51.6553C117.038 50.4273 116.043 49.4319 114.815 49.4319C109.666 49.4319 105.477 53.6212 105.477 58.77C105.477 63.9189 109.666 68.1082 114.815 68.1082C119.964 68.1082 124.153 63.9189 124.153 58.77C124.153 57.5425 123.157 56.5469 121.93 56.5469Z" fill="#2468FF"/>
<path d="M148.018 61.2903H131.417C130.189 61.2903 129.193 62.2857 129.193 63.5137C129.193 64.7418 130.189 65.7372 131.417 65.7372H148.018C149.246 65.7372 150.242 64.7418 150.242 63.5137C150.242 62.2857 149.246 61.2903 148.018 61.2903Z" fill="#2468FF"/>
<path d="M148.018 51.8037H131.417C130.189 51.8037 129.193 52.7991 129.193 54.0272C129.193 55.2553 130.189 56.2506 131.417 56.2506H148.018C149.246 56.2506 150.242 55.2553 150.242 54.0272C150.242 52.7991 149.246 51.8037 148.018 51.8037Z" fill="#2468FF"/>
<path d="M143.275 87.3777H131.417C130.189 87.3777 129.193 88.3731 129.193 89.6011C129.193 90.8292 130.189 91.8246 131.417 91.8246H143.275C144.503 91.8246 145.498 90.8292 145.498 89.6011C145.498 88.3731 144.503 87.3777 143.275 87.3777Z" fill="#2468FF"/>
<path d="M148.018 77.8916H131.417C130.189 77.8916 129.193 78.887 129.193 80.1151C129.193 81.3431 130.189 82.3385 131.417 82.3385H148.018C149.246 82.3385 150.242 81.3431 150.242 80.1151C150.242 78.887 149.246 77.8916 148.018 77.8916Z" fill="#2468FF"/>
<path d="M169.363 35.2024H131.417C130.189 35.2024 129.193 36.1978 129.193 37.4259C129.193 38.6539 130.189 39.6493 131.417 39.6493H169.362C170.59 39.6493 171.586 38.6539 171.586 37.4259C171.586 36.1978 170.59 35.2024 169.363 35.2024Z" fill="#2468FF"/>
<path d="M159.876 25.7158H131.417C130.189 25.7158 129.193 26.7112 129.193 27.9393C129.193 29.1674 130.189 30.1627 131.417 30.1627H159.876C161.104 30.1627 162.1 29.1674 162.1 27.9393C162.1 26.7112 161.104 25.7158 159.876 25.7158Z" fill="#2468FF"/>
<path d="M121.93 82.6348C120.702 82.6348 119.706 83.6301 119.706 84.8582C119.706 87.5554 117.512 89.7497 114.815 89.7497C112.118 89.7497 109.923 87.5554 109.923 84.8582C109.923 82.1611 112.118 79.9667 114.815 79.9667C116.043 79.9667 117.038 78.9713 117.038 77.7432C117.038 76.5152 116.043 75.5198 114.815 75.5198C109.666 75.5198 105.477 79.7091 105.477 84.8579C105.477 90.0068 109.666 94.1961 114.815 94.1961C119.964 94.1961 124.153 90.0068 124.153 84.8579C124.153 83.6301 123.157 82.6348 121.93 82.6348Z" fill="#2468FF"/>
<path d="M178.847 2H98.2127C94.3715 2 91.2461 5.12511 91.2461 8.9666V108.574C91.2461 112.416 94.3712 115.541 98.2127 115.541H138.53C139.758 115.541 140.754 114.545 140.754 113.317C140.754 112.089 139.758 111.094 138.53 111.094H98.2127C96.8232 111.094 95.6927 109.963 95.6927 108.574V8.9666C95.6927 7.57711 96.8232 6.44665 98.2127 6.44665H178.847C180.237 6.44665 181.367 7.57711 181.367 8.9666V82.4869C181.367 83.7147 182.363 84.7103 183.591 84.7103C184.818 84.7103 185.814 83.7149 185.814 82.4869V8.9666C185.814 5.12511 182.689 2 178.847 2Z" fill="#2468FF"/>
<path d="M199.84 92.1629C197.773 91.9568 195.708 92.5426 194.073 93.7837C192.771 91.5988 190.551 90.0487 187.982 89.7913C185.915 89.5855 183.849 90.1713 182.215 91.4121C180.913 89.2272 178.693 87.6771 176.124 87.4198C174.545 87.2622 172.97 87.5662 171.585 88.2709V59.9563C171.585 57.6574 170.607 55.4537 168.901 53.9102C167.197 52.3682 164.9 51.6155 162.599 51.8457C158.495 52.2567 155.28 55.9678 155.28 60.2947V88.6809L148.744 95.2167C145.271 98.6899 143.869 103.618 144.994 108.399L149.956 129.488C151.967 138.033 159.502 144.001 168.28 144.001H188.334C198.714 144.001 207.159 135.556 207.159 125.176V100.612C207.159 96.2851 203.944 92.5739 199.84 92.1629ZM202.712 125.175C202.712 133.103 196.262 139.553 188.334 139.553H168.281C161.576 139.553 155.82 134.995 154.285 128.468L149.323 107.38C148.553 104.109 149.512 100.737 151.888 98.3604L155.28 94.9688V102.645C155.28 103.873 156.275 104.869 157.504 104.869C158.732 104.869 159.727 103.873 159.727 102.645V60.2944C159.727 58.224 161.183 56.4562 163.043 56.2704C164.111 56.1631 165.132 56.4965 165.918 57.2076C166.694 57.9095 167.138 58.9116 167.138 59.9566V99.0882C167.138 100.316 168.134 101.312 169.362 101.312C170.59 101.312 171.585 100.316 171.585 99.0882V95.5307C171.585 94.4857 172.03 93.4836 172.806 92.7817C173.592 92.0706 174.613 91.7369 175.681 91.8445C177.54 92.0306 178.997 93.7984 178.997 95.8688V101.459C178.997 102.687 179.992 103.683 181.22 103.683C182.448 103.683 183.444 102.687 183.444 101.459V97.9017C183.444 96.8567 183.888 95.8546 184.664 95.1527C185.45 94.4416 186.471 94.1082 187.539 94.2155C189.399 94.4016 190.855 96.1694 190.855 98.2398V103.83C190.855 105.058 191.851 106.054 193.079 106.054C194.306 106.054 195.302 105.059 195.302 103.83V100.273C195.302 99.228 195.747 98.2259 196.523 97.524C197.309 96.8131 198.329 96.4792 199.398 96.5871C201.257 96.7729 202.714 98.5407 202.714 100.611V125.175H202.712Z" fill="#2468FF"/>
</g>
</g>
<defs>
<radialGradient id="paint0_radial_2106_1059" cx="0" cy="0" r="1" gradientUnits="userSpaceOnUse" gradientTransform="translate(137.203 154) rotate(90) scale(43 137)">
<stop stop-color="#D6DFFF"/>
<stop offset="1" stop-color="white" stop-opacity="0"/>
</radialGradient>
<clipPath id="clip0_2106_1059">
<rect width="145" height="145" fill="white" transform="translate(73.2031)"/>
</clipPath>
<clipPath id="clip1_2106_1059">
<rect width="134" height="142" fill="white" transform="translate(72.8516 2)"/>
</clipPath>
</defs>
</svg>
