<svg width="185" height="37" viewBox="0 0 185 37" fill="none" xmlns="http://www.w3.org/2000/svg">
<g clip-path="url(#clip0_152_976)">
<mask id="mask0_152_976" style="mask-type:luminance" maskUnits="userSpaceOnUse" x="0" y="0" width="185" height="37">
<path d="M184.753 0.766357H0.626953V36.1555H184.753V0.766357Z" fill="white"/>
</mask>
<g mask="url(#mask0_152_976)">
<path fill-rule="evenodd" clip-rule="evenodd" d="M150.138 0.766388C151.092 0.769758 152.023 1.05546 152.815 1.58746C153.606 2.11946 154.223 2.87395 154.587 3.75578C154.95 4.63763 155.044 5.60735 154.857 6.54265C154.671 7.47796 154.21 8.33699 153.536 9.01143C152.862 9.68587 152.003 10.1455 151.067 10.3324C150.132 10.5194 149.162 10.4252 148.281 10.0617C147.398 9.69823 146.644 9.08182 146.112 8.29018C145.58 7.49852 145.295 6.56708 145.291 5.61328C145.289 4.97614 145.412 4.34485 145.656 3.75578C145.898 3.16671 146.255 2.63151 146.705 2.18098C147.156 1.73046 147.691 1.37353 148.281 1.13074C148.869 0.88796 149.5 0.764136 150.138 0.766388Z" fill="#F58220"/>
<path fill-rule="evenodd" clip-rule="evenodd" d="M121.349 0.766387C122.303 0.763024 123.238 1.043 124.034 1.5709C124.831 2.09881 125.453 2.85095 125.821 3.7322C126.189 4.61344 126.288 5.58421 126.105 6.52177C125.923 7.45931 125.465 8.32152 124.793 8.99936C124.119 9.67721 123.26 10.1403 122.324 10.33C121.388 10.5196 120.416 10.4274 119.533 10.0649C118.649 9.70247 117.893 9.08609 117.359 8.2937C116.825 7.50131 116.539 6.56852 116.535 5.61328C116.537 4.33437 117.044 3.10797 117.945 2.20046C118.847 1.29294 120.069 0.777604 121.349 0.766387Z" fill="#F58220"/>
<path d="M174.387 28.2888V24.5749H180.874V17.5388H174.387V13.7397H180.153C180.754 13.7386 181.35 13.8634 181.9 14.1059C182.451 14.3607 182.951 14.7144 183.374 15.1494C183.807 15.5784 184.15 16.0895 184.383 16.6529C184.63 17.2018 184.756 17.7972 184.754 18.3991V23.8253C184.749 24.2189 184.697 24.6107 184.6 24.9923C184.487 25.3707 184.322 25.7319 184.111 26.0655C183.904 26.4016 183.645 26.7021 183.343 26.9557C183.055 27.2276 182.735 27.4635 182.39 27.6584C181.686 28.0558 180.897 28.278 180.09 28.3058L174.387 28.2888ZM174.387 13.7226V17.5217H167.857V24.5749H174.387V28.2888H168.744C168.102 28.294 167.465 28.1679 166.874 27.9183C166.318 27.704 165.816 27.3694 165.404 26.9387C164.965 26.5253 164.619 26.0228 164.391 25.4651C164.152 24.8713 164.038 24.235 164.054 23.5953V18.0669C164.035 17.4557 164.182 16.8507 164.48 16.3165C164.782 15.7902 165.175 15.3228 165.643 14.9364C166.162 14.5559 166.736 14.2571 167.346 14.0506C167.97 13.8431 168.624 13.7395 169.28 13.7439L174.387 13.7226ZM96.2104 28.2888V24.5749H102.71V17.5388H96.2104V13.7397H101.977C102.579 13.7361 103.174 13.861 103.723 14.1059C104.275 14.3607 104.774 14.7144 105.197 15.1494C105.629 15.5795 105.972 16.0904 106.207 16.6529C106.462 17.2 106.599 17.7953 106.607 18.3991V23.8253C106.607 24.2214 106.545 24.6152 106.424 24.9923C106.311 25.3716 106.144 25.7329 105.929 26.0655C105.725 26.4024 105.466 26.7033 105.163 26.9557C104.882 27.2344 104.562 27.471 104.213 27.6584C103.873 27.8705 103.501 28.0259 103.111 28.1185C102.723 28.2409 102.319 28.3041 101.913 28.3058L96.2104 28.2888ZM113.008 28.4422L109.452 28.3484V17.3259C109.45 16.3635 109.824 15.4385 110.496 14.7491C110.814 14.4152 111.2 14.1538 111.628 13.9824C112.068 13.7707 112.551 13.6655 113.039 13.6757C113.49 13.6751 113.938 13.7589 114.359 13.9227C114.754 14.0987 115.124 14.3249 115.461 14.5957C115.799 14.8963 116.098 15.2367 116.352 15.6094C116.596 16.0017 116.811 16.4117 116.995 16.836L120.308 25.022L123.955 16.4059C124.222 15.6103 124.713 14.9082 125.369 14.3828C126.014 13.9044 126.801 13.6555 127.604 13.6757C128.115 13.6715 128.621 13.7824 129.083 13.9998C129.545 14.2173 129.953 14.536 130.275 14.9322C130.589 15.3144 130.836 15.7463 131.007 16.2099C131.183 16.7015 131.267 17.2213 131.254 17.7432V28.3527H127.698V17.5728L124.172 25.2691C123.924 25.7888 123.711 26.2487 123.465 26.6788C123.271 27.0771 123.011 27.44 122.698 27.7522C122.427 28.0567 122.093 28.298 121.718 28.4592C121.292 28.6412 120.831 28.7242 120.368 28.7019C119.927 28.7089 119.489 28.6142 119.09 28.4252C118.694 28.2164 118.332 27.9477 118.017 27.6287C117.695 27.2922 117.409 26.9225 117.165 26.5256C116.916 26.1133 116.691 25.6867 116.493 25.2478L113.026 17.7007V28.4592L113.008 28.4422ZM162.061 13.6587V17.3684H144.918V24.6686H162.061V28.3484H145.949C145.34 28.3427 144.737 28.2287 144.168 28.012C143.603 27.8 143.076 27.4995 142.605 27.1219C142.147 26.7543 141.771 26.2942 141.502 25.7717C141.228 25.2201 141.092 24.6111 141.101 23.9956V19.055C141.088 18.2534 141.212 17.4552 141.468 16.6955C141.69 16.0444 142.07 15.4587 142.575 14.9919C143.075 14.5344 143.672 14.1978 144.322 14.008C145.087 13.7768 145.883 13.6633 146.681 13.6714L162.061 13.6587ZM96.2104 13.7226V17.5217H89.728V24.5749H96.2275V28.2888H90.5798C89.9378 28.294 89.3016 28.1679 88.7101 27.9183C88.1585 27.6955 87.6584 27.3621 87.2406 26.9387C86.8017 26.5253 86.4561 26.0228 86.227 25.4651C86.0072 24.8691 85.8947 24.239 85.8948 23.6038V18.0669C85.8758 17.4557 86.023 16.8507 86.3207 16.3165C86.6332 15.7893 87.0369 15.322 87.5132 14.9364C88.0171 14.5584 88.5759 14.2597 89.17 14.0506C89.7935 13.8431 90.4467 13.7395 91.1037 13.7439L96.2104 13.7226ZM54.4709 24.4855V20.7118H56.1745L54.4709 17.6155V13.6587H54.5305C55.003 13.6408 55.4736 13.725 55.9105 13.9057C56.2951 14.0945 56.6474 14.3433 56.9539 14.6425C57.2845 15.0047 57.5705 15.405 57.8058 15.8351C58.0528 16.2952 58.3595 16.819 58.6364 17.4025L64.3691 28.3484H60.2932L58.0827 24.4855H54.4709ZM62.5334 13.6587H83.4799V17.4025H74.9019V28.3484H71.1923V17.4025H62.542L62.5334 13.6587ZM10.5209 13.6587H10.5848C11.0576 13.6351 11.5296 13.7195 11.9648 13.9057C12.3525 14.0872 12.7044 14.3367 13.004 14.6425C13.3332 15.0058 13.6189 15.406 13.8559 15.8351C14.1326 16.2952 14.4095 16.819 14.7076 17.4025L20.4405 28.3484H16.3857L14.1796 24.4855H10.5294V20.7118H12.28L10.5294 17.641V13.6843L10.5209 13.6587ZM54.4709 13.6587V17.641L52.7203 20.7374H54.4709V24.511H50.7996L48.7721 28.374H44.5812L50.2842 17.3003C50.5908 16.7466 50.8677 16.2269 51.136 15.7968C51.3825 15.3719 51.6816 14.9799 52.0261 14.6297C52.3308 14.323 52.6964 14.0836 53.0995 13.927C53.5401 13.7598 54.0081 13.676 54.4794 13.68L54.4709 13.6587ZM22.4508 16.8786C22.4472 16.4109 22.5521 15.9488 22.7574 15.5285C22.97 15.1176 23.2492 14.7449 23.5836 14.4254C23.9205 14.0981 24.3165 13.8379 24.7507 13.6587C25.1871 13.4701 25.6554 13.366 26.1306 13.3521C27.2039 13.3521 28.2176 13.8419 29.1972 14.7959L39.2573 24.6387V13.7056H42.9968V24.4556C42.997 24.9975 42.9136 25.5362 42.7498 26.0527C42.5881 26.5257 42.3429 26.9657 42.0257 27.3518C41.7124 27.7242 41.3252 28.0273 40.8885 28.242C40.3992 28.4693 39.865 28.5844 39.3254 28.5784C39.067 28.582 38.8094 28.5519 38.5588 28.489C38.3049 28.4338 38.0578 28.3509 37.822 28.242C37.5679 28.1026 37.3219 27.949 37.0852 27.782C36.8126 27.5988 36.5357 27.3858 36.2333 27.1389L26.1732 17.3855V28.3654H22.4635L22.4508 16.8786ZM4.81794 28.3484H0.626953L6.35974 17.2748C6.63659 16.7211 6.91343 16.2014 7.18602 15.7712C7.44377 15.354 7.74192 14.9631 8.07617 14.6042C8.39245 14.2976 8.76776 14.0586 9.17929 13.9015C9.609 13.7321 10.0676 13.6483 10.5294 13.6544V17.641L8.78318 20.7374H10.5294V24.511H6.87935L4.81794 28.3484Z" fill="#383838"/>
<path d="M138.241 13.6758V28.4592H134.101V13.6758H138.241Z" fill="#383838"/>
<path fill-rule="evenodd" clip-rule="evenodd" d="M136.188 0.766357C137.141 0.769727 138.073 1.05543 138.864 1.58743C139.656 2.11943 140.272 2.87392 140.635 3.75575C140.999 4.6376 141.094 5.60731 140.906 6.54262C140.719 7.47793 140.26 8.33696 139.586 9.0114C138.911 9.68585 138.052 10.1455 137.117 10.3324C136.182 10.5193 135.212 10.4251 134.33 10.0617C133.448 9.6982 132.693 9.08179 132.162 8.29014C131.629 7.49849 131.344 6.56705 131.341 5.61325C131.341 4.32778 131.851 3.09495 132.76 2.18598C133.669 1.27701 134.902 0.766357 136.188 0.766357Z" fill="#F58220"/>
</g>
</g>
<defs>
<clipPath id="clip0_152_976">
<rect width="184.719" height="36.162" fill="white" transform="translate(0.0341797)"/>
</clipPath>
</defs>
</svg>
