<svg width="185" height="41" viewBox="0 0 185 41" fill="none" xmlns="http://www.w3.org/2000/svg">
<g clip-path="url(#clip0_152_941)">
<mask id="mask0_152_941" style="mask-type:luminance" maskUnits="userSpaceOnUse" x="0" y="0" width="185" height="41">
<path d="M184.421 0.778809H0.0136719V40.7101H184.421V0.778809Z" fill="white"/>
</mask>
<g mask="url(#mask0_152_941)">
<path d="M68.1363 7.72119H60.1662L57.3486 28.6219H63.0467L63.3332 24.8186H65.2559L65.5356 28.6079H71.2929L68.1363 7.72119ZM65.2349 21.0048H63.3332L64.1582 12.3634C64.1582 12.3634 65.3083 20.9559 65.2349 21.0048Z" fill="#383838"/>
<path d="M127.499 24.7941C127.603 25.532 127.899 26.2298 128.356 26.8181C128.925 27.5275 129.677 28.0688 130.53 28.3842C131.598 28.804 132.738 29.0084 133.886 28.9854C134.904 29.0021 135.917 28.8278 136.872 28.4716C137.667 28.1687 138.367 27.6566 138.895 26.9894C139.419 26.3322 139.723 25.0912 139.829 24.469C139.969 23.4863 140.023 22.4933 139.993 21.5012V7.7002H134.47V23.2385C134.509 23.8788 134.458 24.5215 134.316 25.1471C134.265 25.2781 134.173 25.3885 134.052 25.4612C133.932 25.534 133.791 25.5648 133.651 25.5492C133.525 25.5632 133.397 25.5368 133.286 25.4742C133.174 25.4114 133.086 25.3154 133.033 25.1996C132.905 24.644 132.857 24.0732 132.889 23.5042V7.70719H127.366V19.9421C127.366 22.2318 127.408 24.0845 127.492 24.7872" fill="#383838"/>
<path d="M182.705 7.69653H177.189V28.6112H182.705V7.69653Z" fill="#383838"/>
<path d="M166.167 19.6939H167.821V28.6079H173.333V7.7002H167.821V15.1461H166.167V7.7002H160.651V28.6079H166.167V19.6939Z" fill="#383838"/>
<path d="M146.442 28.1604C147.687 28.7564 149.059 29.0407 150.438 28.9889C151.812 29.0325 153.172 28.695 154.367 28.0136C155.287 27.514 156.011 26.7165 156.418 25.7519C156.73 24.8954 156.883 22.826 156.883 20.774V19.956H151.36V23.1021C151.401 23.7998 151.337 24.4997 151.172 25.1786C151.083 25.3142 150.961 25.4255 150.819 25.5025C150.676 25.5795 150.516 25.6199 150.354 25.6199C150.191 25.6199 150.032 25.5795 149.889 25.5025C149.746 25.4255 149.625 25.3142 149.536 25.1786C149.41 24.8885 149.372 24.2592 149.372 23.2944V13.482C149.372 12.4752 149.41 11.4719 149.536 11.1644C149.662 10.8568 149.92 10.724 150.371 10.724C150.822 10.724 151.07 10.8428 151.179 11.0735C151.287 11.3042 151.36 12.3005 151.36 13.2967V16.754H156.873V14.8768C156.873 13.0206 156.703 11.3147 156.374 10.4408C155.97 9.48039 155.232 8.69901 154.297 8.24198C153.086 7.6169 151.733 7.31697 150.371 7.37155C149.253 7.34937 148.142 7.54038 147.096 7.93436C146.246 8.25552 145.497 8.79727 144.925 9.50392C144.439 10.0975 144.118 10.809 143.996 11.5664C143.867 12.748 143.812 13.9365 143.831 15.125V20.9068C143.831 22.854 144.01 24.9094 144.351 25.8812C144.725 26.8866 145.479 27.705 146.449 28.1604" fill="#383838"/>
<path d="M78.9432 28.5974L78.9397 14.8384L80.8938 28.594H84.2217L86.2981 14.8909V28.594H91.1501L91.1222 7.7002H83.9805L82.6207 17.4392L81.2609 7.7002H74.1191L74.1227 28.594L78.9432 28.5974Z" fill="#383838"/>
<path d="M47.4158 28.6147H52.5125V21.0082L56.5465 7.71753H51.4743L50.0621 15.9289L48.6009 7.71753H43.5391L47.4158 21.0082V28.6147Z" fill="#383838"/>
<path d="M100.075 24.8113H101.997L102.273 28.6007H108.03L104.884 7.71045H96.9074L94.0898 28.6112H99.7876L100.075 24.8113ZM100.896 12.3667C100.896 12.3667 102.046 20.9626 101.976 21.0045H100.075L100.896 12.3667Z" fill="#383838"/>
<path d="M111.576 26.7097C112.016 27.3984 112.626 27.962 113.348 28.3456C114.148 28.7652 115.039 28.9801 115.942 28.9713C116.722 28.9713 117.546 28.856 118.074 28.4749C118.702 28.0799 119.205 27.5151 119.525 26.8459L120.031 28.5938H123.527V17.5265H117.148V20.3056H118.126V23.1685C118.168 23.8035 118.093 24.4409 117.907 25.0492C117.838 25.2056 117.721 25.3364 117.574 25.4224C117.426 25.5084 117.255 25.5455 117.085 25.5281C116.931 25.5446 116.777 25.5127 116.643 25.4368C116.509 25.3609 116.402 25.245 116.337 25.1051C116.186 24.527 116.127 23.9292 116.158 23.3328V13.1219C116.158 12.1011 116.225 11.4579 116.337 11.2168C116.425 11.0901 116.544 10.9891 116.683 10.9239C116.823 10.8588 116.977 10.8319 117.13 10.8462C117.525 10.8462 117.829 10.9266 117.955 11.2168C118.07 11.6501 118.128 12.0968 118.126 12.5452C118.126 12.7758 118.126 13.1359 118.126 13.419V15.1004H123.531V14.646C123.531 13.01 123.356 11.4999 123.027 10.6224C122.698 9.74507 122.003 9.01797 120.93 8.38175C119.697 7.69148 118.302 7.34273 116.889 7.3715C115.455 7.33612 114.044 7.74515 112.851 8.54256C111.802 9.26266 111.177 10.0597 110.96 10.9231C110.693 12.3859 110.576 13.8724 110.61 15.3591V21.4136C110.589 22.523 110.642 23.6326 110.771 24.7346C110.883 25.4441 111.152 26.1195 111.561 26.7097" fill="#383838"/>
<path d="M17.793 33.6702C26.1393 33.6702 32.9054 26.9042 32.9054 18.5579C32.9054 10.2116 26.1393 3.44556 17.793 3.44556C9.44669 3.44556 2.68066 10.2116 2.68066 18.5579C2.68066 26.9042 9.44669 33.6702 17.793 33.6702Z" fill="white"/>
<path d="M17.7896 0.778809C21.3061 0.778119 24.7439 1.82026 27.6682 3.77345C30.5924 5.72664 32.8718 8.50312 34.218 11.7518C35.5643 15.0004 35.9168 18.5754 35.2312 22.0245C34.5456 25.4735 32.8525 28.6417 30.3662 31.1286C27.8799 33.6154 24.7119 35.3091 21.2629 35.9954C17.8139 36.6817 14.239 36.3297 10.9899 34.9842C7.74102 33.6387 4.96405 31.3598 3.01027 28.436C1.0565 25.5121 0.0136719 22.0745 0.0136719 18.558C0.0136718 13.8433 1.88637 9.3216 5.21989 5.98745C8.55341 2.65331 13.0748 0.779735 17.7896 0.778809ZM26.571 13.2599C26.964 12.8669 27.1847 12.334 27.1847 11.7782C27.1847 11.2226 26.964 10.6896 26.571 10.2967C26.1781 9.90371 25.6451 9.68296 25.0895 9.68296C24.5337 9.68296 24.0008 9.90371 23.6078 10.2967L18.0862 15.8182H17.6604L12.1388 10.2967C11.7459 9.90324 11.2127 9.68205 10.6567 9.68173C10.1007 9.6814 9.56726 9.90196 9.17385 10.2949C8.78043 10.6878 8.55923 11.221 8.55891 11.777C8.55858 12.333 8.77915 12.8664 9.1721 13.2599L15.7337 19.8145V29.1962C15.756 29.7419 15.9883 30.2578 16.3822 30.636C16.7762 31.0142 17.301 31.2254 17.8471 31.2254C18.3932 31.2254 18.9181 31.0142 19.3121 30.636C19.7059 30.2578 19.9383 29.7419 19.9605 29.1962V19.8668L26.571 13.2599Z" fill="#E03638"/>
</g>
</g>
<defs>
<clipPath id="clip0_152_941">
<rect width="184.762" height="40.7271" fill="white" transform="translate(0.0126953)"/>
</clipPath>
</defs>
</svg>
