<svg width="151" height="40" viewBox="0 0 151 40" fill="none" xmlns="http://www.w3.org/2000/svg">
<mask id="mask0_152_958" style="mask-type:luminance" maskUnits="userSpaceOnUse" x="1" y="1" width="149" height="37">
<path d="M149.771 1.64502H1.74805V37.8499H149.771V1.64502Z" fill="white"/>
</mask>
<g mask="url(#mask0_152_958)">
<path d="M91.0391 14.1706C92.7855 13.8078 94.7619 13.97 96.2458 15.0291C97.6676 16.0615 98.1839 17.8964 98.1868 19.5808C98.1278 21.401 97.5466 23.3981 95.9507 24.4571C94.5256 25.3227 92.8379 25.6502 91.1925 25.3804C90.9358 24.9911 91.1157 24.4689 91.0597 24.0293C91.0637 20.7431 91.0568 17.4569 91.0391 14.1706Z" fill="white"/>
<path d="M132.419 20.9793C133.057 18.7521 133.65 16.516 134.189 14.2622C134.755 16.5042 135.396 18.7255 136.066 20.9379C134.841 20.9704 133.62 20.9292 132.419 20.9793Z" fill="white"/>
<path d="M149.763 1.64502H1.75781V37.8499H149.763V1.64502Z" fill="white"/>
<path d="M1.77448 1.64502C51.0979 1.64502 100.422 1.64502 149.747 1.64502C149.747 13.7074 149.78 25.7698 149.768 37.8322C100.431 37.8558 51.0929 37.8558 1.75383 37.8322C1.73318 25.7757 1.77448 13.7133 1.77448 1.64502ZM4.96634 4.63628C4.93684 14.6455 4.96634 24.6518 4.96634 34.661C17.663 34.661 30.3576 34.661 43.0503 34.661C43.071 24.6607 43.0503 14.6603 43.0946 4.65988C30.3714 4.59499 17.6866 4.64808 4.96634 4.63628ZM46.6493 4.63628C46.6493 14.6308 46.6758 24.6282 46.6493 34.6226C79.9573 34.6964 113.268 34.6227 146.58 34.655C146.594 24.6518 146.58 14.6455 146.615 4.63923C113.296 4.62547 79.974 4.62547 46.6493 4.63923V4.63628Z" fill="#231F20"/>
<path d="M113.017 14.3951C114.492 12.3567 116.894 11.1502 119.359 10.8729C121.315 10.8374 123.362 10.6811 125.188 11.5307C124.935 12.6074 124.628 13.6754 124.345 14.7462C122.032 13.814 119.055 13.7166 117.141 15.5338C115.047 17.764 115.032 21.6992 117.141 23.9205C119.052 25.7171 122.065 25.5696 124.368 24.7082C124.59 25.8076 124.797 26.9099 124.985 28.0151C122.259 28.9001 119.203 29.0564 116.483 28.0682C115.329 27.6398 114.295 26.9398 113.469 26.0274C112.641 25.1149 112.046 24.0169 111.734 22.8261C110.985 20.0148 111.315 16.8081 113.017 14.3951Z" fill="#231F20"/>
<path d="M66.0695 15.1325C65.6328 17.1621 65.0252 18.7079 64.5178 20.4218C63.6978 22.9883 62.9278 25.5695 62.1048 28.1389C61.0486 28.1389 59.9897 28.1389 58.9335 28.1389C57.7063 23.8113 56.4556 19.4837 55.5736 15.0705C55.4437 19.525 55.1664 23.9706 55.016 28.4251C53.7682 28.4251 52.5203 28.4251 51.2754 28.4251C51.479 22.6284 52.0601 16.8494 52.3049 11.0527C54.075 11.0055 55.8774 11.0527 57.6621 11.0321C58.7949 14.9761 60.0781 18.8849 60.8127 22.9293C61.6977 18.8849 63.0015 14.9644 64.2847 11.0261C66.0282 11.0261 67.7687 11.0261 69.5121 11.0261C69.7894 16.8228 70.167 22.6195 70.4384 28.4309C69.1345 28.4309 67.8306 28.4309 66.5267 28.4309L66.0695 15.1325Z" fill="#231F20"/>
<path d="M73.298 11.0466C76.9058 11.0466 80.5135 11.0466 84.1244 11.0466C84.1244 12.1558 84.1244 13.2621 84.1244 14.3713C81.8617 14.3713 79.602 14.3713 77.3394 14.3713C77.3394 15.5158 77.3394 16.6604 77.3394 17.805C79.4692 17.8227 81.5992 17.805 83.7319 17.805V21.165C81.6021 21.165 79.4752 21.165 77.3453 21.165C77.3453 22.466 77.3453 23.7698 77.3453 25.0738C79.7259 25.0738 82.1035 25.0738 84.4813 25.0738C84.5403 26.1888 84.5019 27.3157 84.5196 28.4367C80.7732 28.4367 77.0267 28.4367 73.2773 28.4367C73.2921 22.64 73.3097 16.8433 73.298 11.0466Z" fill="#231F20"/>
<path d="M87.0324 11.2711C89.4464 10.9311 91.8882 10.8322 94.3217 10.9761C96.726 11.1561 99.2512 12.0292 100.77 13.9939C102.361 15.9615 102.623 18.6607 102.29 21.0738C101.977 23.773 100.337 26.3837 97.785 27.4634C94.4014 28.9384 90.59 28.7407 87.0029 28.3484C87.0117 22.6697 87.0118 16.9852 87.0324 11.2711ZM91.0385 25.3808C92.7332 25.6505 94.4691 25.3242 95.9501 24.4574C97.546 23.3983 98.1272 21.4013 98.1862 19.5811C98.1862 17.8967 97.667 16.0618 96.2451 15.0294C94.7702 13.9703 92.7849 13.808 91.0385 14.171V25.3808Z" fill="#231F20"/>
<path d="M104.873 11.0439H108.906C108.906 16.8406 108.906 22.6373 108.921 28.4488C107.567 28.4488 106.21 28.4488 104.855 28.4488C104.859 22.6452 104.865 16.8436 104.873 11.0439Z" fill="#231F20"/>
<path d="M131.698 11.053C133.468 11.053 135.214 11.0294 136.973 11.053C138.743 16.8555 140.592 22.6316 142.383 28.4283C140.908 28.4283 139.453 28.4283 137.99 28.4283C137.545 26.9681 137.081 25.5137 136.686 24.0387C135.07 23.9621 133.441 24.0181 131.833 24.0062C131.415 25.4812 131.019 26.9562 130.594 28.4312C129.214 28.4312 127.833 28.4312 126.465 28.4312C128.094 22.6139 129.99 16.8585 131.698 11.053ZM132.42 20.9796C133.63 20.9295 134.843 20.9796 136.056 20.9383C135.386 18.7258 134.745 16.5134 134.179 14.2625C133.65 16.5164 133.058 18.7554 132.42 20.9796Z" fill="#231F20"/>
<path d="M28.0666 12.9024C29.1345 11.6427 30.7776 11.0262 32.3824 10.8375C34.2911 10.6752 36.2704 10.8551 38.0316 11.6516C37.713 12.7165 37.4416 13.7903 37.1112 14.8553C35.5919 14.2446 33.9045 13.7756 32.2763 14.2121C31.4178 14.4452 30.6449 15.5042 31.1906 16.3568C31.9428 17.401 33.3087 17.6518 34.4356 18.1445C36.1023 18.7816 37.8369 19.8201 38.4358 21.6048C38.9756 23.304 38.6924 25.3423 37.421 26.658C36.1465 28.0239 34.235 28.5608 32.406 28.6375C30.4652 28.7569 28.5244 28.4026 26.751 27.605C27.0164 26.5076 27.2967 25.4132 27.5415 24.3099C29.3115 25.0858 31.3292 25.7111 33.2674 25.1949C33.503 25.143 33.7252 25.0422 33.9197 24.8993C34.1141 24.7562 34.2764 24.5741 34.3961 24.3646C34.5159 24.1551 34.5905 23.9228 34.6151 23.6827C34.6396 23.4426 34.6136 23.2 34.5389 22.9706C34.1612 22.0857 33.173 21.7581 32.3618 21.3983C30.7364 20.8083 29.0017 20.1505 27.8955 18.7434C26.5386 17.1002 26.6831 14.5042 28.0666 12.9024Z" fill="#F57F29"/>
<path d="M9.96289 11.0142C11.2766 11.0338 12.5873 11.0338 13.8952 11.0142C13.8952 14.1677 13.8952 17.3212 13.8952 20.4747C13.9158 21.7844 13.9601 23.1886 14.7153 24.3096C15.5501 25.6843 17.6239 25.8347 18.8452 24.8996C19.9514 23.9615 20.1196 22.4039 20.1579 21.044C20.1579 17.6958 20.1579 14.3476 20.1432 11.0142C21.4765 11.0259 22.81 11.0259 24.1433 11.0142C24.1433 14.2669 24.1433 17.5197 24.1433 20.7726C24.1138 22.9025 23.7038 25.171 22.2082 26.7816C20.5769 28.4484 18.0782 28.8467 15.8451 28.6402C14.1547 28.528 12.4556 27.7729 11.4202 26.3834C10.3847 24.9939 10.0307 23.3067 9.97469 21.6458C9.95994 18.1058 9.98648 14.56 9.96289 11.0142Z" fill="#F57F29"/>
</g>
</svg>
