<svg width="55" height="55" viewBox="0 0 55 55" fill="none" xmlns="http://www.w3.org/2000/svg">
<path d="M27.4997 52.1353C13.9101 52.1353 2.86426 41.0895 2.86426 27.4999C2.86426 13.9103 13.9101 2.8645 27.4997 2.8645C41.0893 2.8645 52.1351 13.9103 52.1351 27.4999C52.1351 41.0895 41.0893 52.1353 27.4997 52.1353ZM27.4997 6.302C15.8122 6.302 6.30176 15.8124 6.30176 27.4999C6.30176 39.1874 15.8122 48.6978 27.4997 48.6978C39.1872 48.6978 48.6976 39.1874 48.6976 27.4999C48.6976 15.8124 39.1872 6.302 27.4997 6.302Z" fill="#292D32"/>
<path d="M36.0038 36.5058C35.7059 36.5058 35.408 36.437 35.133 36.2537L28.0288 32.0141C26.2643 30.96 24.958 28.6454 24.958 26.6058V17.21C24.958 16.2704 25.7372 15.4912 26.6768 15.4912C27.6163 15.4912 28.3955 16.2704 28.3955 17.21V26.6058C28.3955 27.4308 29.083 28.6454 29.7934 29.0579L36.8976 33.2975C37.7226 33.7787 37.9747 34.8329 37.4934 35.6579C37.1497 36.2079 36.5768 36.5058 36.0038 36.5058Z" fill="#292D32"/>
</svg>
