<svg width="55" height="55" viewBox="0 0 55 55" fill="none" xmlns="http://www.w3.org/2000/svg">
<path d="M27.5016 32.4729C22.6203 32.4729 18.6328 28.5083 18.6328 23.6041C18.6328 18.7 22.6203 14.7583 27.5016 14.7583C32.3828 14.7583 36.3703 18.7229 36.3703 23.6271C36.3703 28.5312 32.3828 32.4729 27.5016 32.4729ZM27.5016 18.1958C24.5224 18.1958 22.0703 20.625 22.0703 23.6271C22.0703 26.6291 24.4995 29.0583 27.5016 29.0583C30.5036 29.0583 32.9328 26.6291 32.9328 23.6271C32.9328 20.625 30.4807 18.1958 27.5016 18.1958Z" fill="#292D32"/>
<path d="M27.4989 52.1583C24.1072 52.1583 20.6926 50.8749 18.0343 48.3312C11.2739 41.8228 3.80304 31.4416 6.62179 19.0895C9.16554 7.88325 18.951 2.8645 27.4989 2.8645C27.4989 2.8645 27.4989 2.8645 27.5218 2.8645C36.0697 2.8645 45.8551 7.88325 48.3989 19.1124C51.1947 31.4645 43.7239 41.8228 36.9635 48.3312C34.3051 50.8749 30.8905 52.1583 27.4989 52.1583ZM27.4989 6.302C20.8301 6.302 12.2593 9.85408 9.99055 19.8458C7.51554 30.6395 14.2989 39.9437 20.4405 45.8333C24.4051 49.6603 30.6155 49.6603 34.5801 45.8333C40.6989 39.9437 47.4822 30.6395 45.053 19.8458C42.7614 9.85408 34.1676 6.302 27.4989 6.302Z" fill="#292D32"/>
</svg>
