<svg width="46" height="46" viewBox="0 0 46 46" fill="none" xmlns="http://www.w3.org/2000/svg">
<path d="M33.4445 43.6041C31.2787 43.6041 28.9979 43.0866 26.6404 42.0899C24.3404 41.1124 22.0212 39.7708 19.7595 38.1416C17.517 36.4933 15.3512 34.6533 13.3004 32.6408C11.2687 30.5899 9.4287 28.4241 7.79953 26.2008C6.1512 23.9008 4.8287 21.6008 3.88953 19.3774C2.89286 17.0008 2.39453 14.7008 2.39453 12.5349C2.39453 11.0399 2.66286 9.62158 3.18036 8.29909C3.71703 6.93825 4.57953 5.67325 5.7487 4.58075C7.22453 3.12409 8.9112 2.39575 10.7129 2.39575C11.4604 2.39575 12.227 2.56825 12.8787 2.87492C13.6262 3.21992 14.2587 3.73742 14.7187 4.42742L19.1654 10.6949C19.5679 11.2508 19.8745 11.7874 20.0854 12.3241C20.3345 12.8991 20.4687 13.4741 20.4687 14.0299C20.4687 14.7583 20.2579 15.4674 19.8554 16.1383C19.5679 16.6558 19.127 17.2116 18.5712 17.7674L17.2679 19.1283C17.287 19.1858 17.3062 19.2241 17.3254 19.2624C17.5554 19.6649 18.0154 20.3549 18.897 21.3899C19.8362 22.4633 20.7179 23.4408 21.5995 24.3416C22.7304 25.4533 23.6695 26.3349 24.5512 27.0633C25.6437 27.9833 26.3529 28.4433 26.7745 28.6541L26.7362 28.7499L28.1354 27.3699C28.7295 26.7758 29.3045 26.3349 29.8604 26.0474C30.9145 25.3958 32.2562 25.2808 33.5979 25.8366C34.0962 26.0474 34.6329 26.3349 35.2079 26.7374L41.5712 31.2608C42.2804 31.7399 42.7979 32.3533 43.1045 33.0816C43.392 33.8099 43.5262 34.4808 43.5262 35.1516C43.5262 36.0716 43.3154 36.9916 42.9129 37.8541C42.5104 38.7166 42.012 39.4641 41.3795 40.1541C40.287 41.3616 39.0987 42.2241 37.7187 42.7799C36.3962 43.3166 34.9587 43.6041 33.4445 43.6041ZM10.7129 5.27075C9.6587 5.27075 8.6812 5.73075 7.74203 6.65075C6.86036 7.47492 6.24703 8.37575 5.8637 9.35325C5.4612 10.3499 5.26953 11.4041 5.26953 12.5349C5.26953 14.3174 5.6912 16.2533 6.53453 18.2466C7.39703 20.2783 8.60453 22.3866 10.1379 24.4949C11.6712 26.6033 13.4154 28.6541 15.332 30.5899C17.2487 32.4874 19.3187 34.2508 21.4462 35.8033C23.5162 37.3174 25.6437 38.5441 27.752 39.4258C31.0295 40.8249 34.0962 41.1508 36.6262 40.0966C37.6037 39.6941 38.4662 39.0808 39.252 38.1991C39.6929 37.7199 40.0379 37.2024 40.3254 36.5891C40.5554 36.1099 40.6704 35.6116 40.6704 35.1133C40.6704 34.8066 40.6129 34.4999 40.4595 34.1549C40.402 34.0399 40.287 33.8291 39.9229 33.5799L33.5595 29.0566C33.1762 28.7883 32.8312 28.5966 32.5054 28.4624C32.0837 28.2899 31.9112 28.1174 31.2595 28.5199C30.8762 28.7116 30.5312 28.9991 30.1479 29.3824L28.6912 30.8199C27.9437 31.5483 26.7937 31.7207 25.912 31.3949L25.3945 31.1649C24.6087 30.7433 23.6887 30.0916 22.6729 29.2291C21.7529 28.4433 20.7562 27.5233 19.5487 26.3349C18.6095 25.3766 17.6704 24.3608 16.6929 23.2299C15.792 22.1758 15.1404 21.2749 14.7379 20.5274L14.5079 19.9524C14.3929 19.5116 14.3545 19.2624 14.3545 18.9941C14.3545 18.3041 14.6037 17.6908 15.0829 17.2116L16.5204 15.7166C16.9037 15.3333 17.1912 14.9691 17.3829 14.6433C17.5362 14.3941 17.5937 14.1833 17.5937 13.9916C17.5937 13.8383 17.5362 13.6083 17.4404 13.3783C17.3062 13.0716 17.0954 12.7266 16.827 12.3624L12.3804 6.07575C12.1887 5.80742 11.9587 5.61575 11.6712 5.48159C11.3645 5.34742 11.0387 5.27075 10.7129 5.27075ZM26.7362 28.7691L26.4295 30.0724L26.947 28.7308C26.8512 28.7116 26.7745 28.7308 26.7362 28.7691Z" fill="#2A2A2A"/>
</svg>
