<svg width="40" height="44" viewBox="0 0 40 44" fill="none" xmlns="http://www.w3.org/2000/svg">
<path d="M2.86499 1.48917C0.864986 3.65533 -0.20168 8.46148 0.264987 12.9292C0.731653 17.6 3.13165 27.9569 4.46499 31.1384C5.39832 33.3723 5.39832 33.5076 3.73166 34.7261C2.73166 35.4707 1.99832 36.6215 1.99832 37.5692C1.99832 38.923 2.53166 39.3292 5.66499 40.2092C7.66499 40.8184 10.9317 41.7661 12.865 42.3076C14.7317 42.8492 17.5317 43.323 18.9983 43.3907C26.3317 43.4584 31.3983 43.1876 35.3317 42.443L39.665 41.563L39.5317 38.6523C39.465 36.6215 38.9317 35.1323 37.865 33.9815C36.7983 32.8307 36.5983 32.2215 37.1983 32.0184C38.9983 31.3415 37.665 19.6984 35.3317 16.7876C34.665 15.9076 32.5983 14.6892 30.7317 13.9446C27.7983 12.8615 27.3983 12.523 27.7317 11.2369C28.265 9.00302 24.065 3.18148 21.5983 2.70763C20.5317 2.50456 18.5317 1.75994 17.1983 1.15071C15.5317 0.406093 12.9983 -6.10352e-05 9.46499 -6.10352e-05C4.86499 -6.10352e-05 4.06499 0.203016 2.86499 1.48917ZM17.1317 2.36917C17.865 2.91071 18.865 4.33225 19.265 5.48302C19.9983 7.58148 19.9317 7.58148 18.7983 6.56609C17.865 5.68609 16.265 5.41533 12.7983 5.41533C8.99832 5.41533 7.99832 5.21225 7.99832 4.39994C7.99832 3.8584 7.26499 3.24917 6.33166 2.9784C2.99832 2.0984 4.79832 1.35379 10.1983 1.35379C13.9983 1.35379 16.1317 1.69225 17.1317 2.36917ZM24.7317 6.97225C26.9983 10.2215 27.1317 11.3723 25.265 13.8092C23.3317 16.3138 21.9983 16.1107 21.9983 13.3353C21.9983 12.0492 21.5317 9.54456 20.9983 7.71686C19.7317 3.45225 19.7317 3.45225 21.3983 3.8584C22.1317 4.06148 23.665 5.48302 24.7317 6.97225ZM3.13166 7.17533C3.26499 11.9815 4.46499 14.08 7.66499 15.6369C9.19832 16.3815 11.1317 17.6676 11.9317 18.5476C13.665 20.443 16.265 31.5446 15.065 32.0861C14.5983 32.2892 14.5983 32.6276 15.265 33.0338C16.3317 33.7784 17.1983 41.9692 16.265 41.9692C14.465 41.9015 4.99832 38.6523 4.79832 38.043C4.73166 37.7046 5.19832 37.163 5.99832 36.8923C7.86499 36.283 9.99832 33.9138 9.99832 32.4246C9.99832 31.7476 10.5317 31.1384 11.1983 31.003C11.9317 30.8 11.065 30.0553 8.53166 28.7692C4.93166 26.9415 4.73166 26.6707 3.39832 22.4738C1.66499 17.1938 0.99832 11.3723 1.59832 7.17533C2.19832 3.18148 2.93166 3.18148 3.13166 7.17533ZM6.93166 4.67071C7.59832 5.75379 8.19832 11.3723 7.79832 12.4553C7.13165 14.2153 5.39832 12.8615 4.99832 10.2892C4.79832 8.86763 4.46499 6.97225 4.33166 5.88917C4.06499 4.46763 4.26499 4.06148 5.33166 4.06148C5.99832 4.06148 6.73166 4.33225 6.93166 4.67071ZM18.9983 9.07071C20.5317 11.9138 20.065 13.2 17.3317 13.8092C14.465 14.3507 10.465 14.283 9.66499 13.6738C9.33166 13.403 8.99832 11.7784 8.99832 9.95071L8.93165 6.76917H13.3983C17.7317 6.76917 17.7983 6.83686 18.9983 9.07071ZM21.3317 16.1784C21.3317 17.6 21.5317 19.6984 21.7317 20.7815C22.065 22.6769 21.9317 22.88 20.065 23.1507C18.1983 23.4215 17.9983 23.2861 17.5983 21.1876C17.3317 19.9015 16.3983 17.9384 15.5317 16.8553L13.865 14.8923H16.5983C18.065 14.8923 19.465 14.5538 19.665 14.2153C20.5317 12.7261 21.3317 13.6738 21.3317 16.1784ZM31.5983 15.5692C34.9317 17.1938 35.9983 19.0892 36.3983 24.3692L36.7317 28.0923L35.7983 25.723C35.265 24.4369 34.465 22 33.9317 20.3076C33.1983 17.9384 32.3983 16.9907 30.3317 15.7723C26.9983 13.8769 27.7317 13.7415 31.5983 15.5692ZM32.5983 19.563C32.9317 20.5107 33.465 22.0676 33.7317 22.9476L34.1317 24.5723L32.265 23.083C31.1983 22.2707 30.1317 20.9169 29.9317 20.1046C29.5983 18.7507 29.1983 18.6153 26.1317 18.8184C22.1983 19.0215 21.5317 17.9384 24.5317 16.1784C26.1983 15.2307 26.5317 15.2307 29.1317 16.4492C30.7983 17.2615 32.1983 18.5476 32.5983 19.563ZM14.5317 17.803C15.5983 18.8861 16.3317 21.1876 16.9983 25.1138C18.1317 31.7476 18.1317 31.8153 17.465 31.8153C17.1983 31.8153 16.3983 29.1753 15.7983 25.9261C15.1317 22.6769 13.9983 19.2246 13.265 18.1415C11.5983 15.84 12.5317 15.6369 14.5317 17.803ZM28.665 19.9015C28.665 20.0369 28.865 20.6461 29.065 21.2553C29.3983 22.1353 28.9317 22.3384 26.465 22.3384C22.9983 22.3384 21.7983 21.323 24.1317 20.3753C25.7317 19.6984 28.665 19.4276 28.665 19.9015ZM31.7317 24.4369C31.9317 24.7753 30.465 25.0461 28.5317 25.1138C26.5983 25.1138 23.5317 25.3846 21.7983 25.6553C20.065 25.9261 18.465 25.9261 18.265 25.5876C17.7317 24.7753 19.265 24.3015 24.465 23.76C29.1983 23.2861 31.1317 23.4215 31.7317 24.4369ZM22.7317 31.1384C23.465 35.8092 24.265 36.6892 27.265 36.1476C30.5983 35.5384 30.7983 35.3353 29.665 33.643C29.1317 32.8307 28.5317 30.8 28.265 29.1753C27.865 26.5353 27.9317 26.2646 29.065 26.5353C29.9317 26.6707 30.465 27.6184 30.7983 29.5815C31.5317 34.0492 32.3983 35.2 34.9983 35.2C37.3983 35.2 38.665 36.5538 38.665 39.1938C38.665 40.8184 38.065 41.0215 29.9983 41.9692C21.7983 43.0523 19.9983 42.443 19.9983 38.72C19.9983 37.2984 19.665 34.32 19.265 32.1538C18.5983 28.5661 18.665 28.0923 19.7317 27.28C21.3983 26.0615 22.065 27.0092 22.7317 31.1384ZM26.9983 28.9046C27.265 30.3261 27.665 32.1538 27.9983 32.9661C28.465 34.1846 28.3317 34.523 27.1983 34.8615C25.265 35.5384 24.1983 34.0492 23.7317 29.92C23.265 26.4676 23.3317 26.4 24.9317 26.4C26.3317 26.4 26.665 26.8061 26.9983 28.9046ZM34.9317 27.2123C35.1317 27.6861 35.3983 29.3784 35.5317 30.9353C35.7983 33.44 35.665 33.8461 34.5983 33.8461C33.1317 33.8461 32.3317 32.4246 31.7983 28.9046C31.465 26.603 31.5317 26.4 33.065 26.4C33.9983 26.4 34.7983 26.8061 34.9317 27.2123ZM7.33166 29.4461C9.39832 30.5292 9.59832 31.003 8.93165 32.763C8.33166 34.3876 7.46499 34.0492 5.99832 31.6123C3.93166 28.16 4.19832 27.7538 7.33166 29.4461ZM18.665 37.9753C18.665 43.3907 17.665 43.0523 17.5317 37.5692C17.465 34.9292 17.665 33.3046 18.065 33.5076C18.3983 33.7784 18.665 35.7415 18.665 37.9753ZM6.66499 34.9969C6.66499 35.3353 5.93165 35.8769 4.99832 36.3507C4.06499 36.7569 3.33166 36.8923 3.33166 36.6215C3.33166 36.283 3.99832 35.7415 4.86499 35.3353C6.73166 34.3876 6.66499 34.4553 6.66499 34.9969Z" fill="#2A2A2A"/>
<mask id="mask0_152_871" style="mask-type:luminance" maskUnits="userSpaceOnUse" x="-2" y="-1" width="43" height="46">
<path d="M40.156 -0.599243H-0.955078V44.529H40.156V-0.599243Z" fill="white" stroke="white" stroke-width="0.6"/>
<path d="M2.86499 1.48917C0.864986 3.65533 -0.20168 8.46148 0.264987 12.9292C0.731653 17.6 3.13165 27.9569 4.46499 31.1384C5.39832 33.3723 5.39832 33.5076 3.73166 34.7261C2.73166 35.4707 1.99832 36.6215 1.99832 37.5692C1.99832 38.923 2.53166 39.3292 5.66499 40.2092C7.66499 40.8184 10.9317 41.7661 12.865 42.3076C14.7317 42.8492 17.5317 43.323 18.9983 43.3907C26.3317 43.4584 31.3983 43.1876 35.3317 42.443L39.665 41.563L39.5317 38.6523C39.465 36.6215 38.9317 35.1323 37.865 33.9815C36.7983 32.8307 36.5983 32.2215 37.1983 32.0184C38.9983 31.3415 37.665 19.6984 35.3317 16.7876C34.665 15.9076 32.5983 14.6892 30.7317 13.9446C27.7983 12.8615 27.3983 12.523 27.7317 11.2369C28.265 9.00302 24.065 3.18148 21.5983 2.70763C20.5317 2.50456 18.5317 1.75994 17.1983 1.15071C15.5317 0.406093 12.9983 -6.10352e-05 9.46499 -6.10352e-05C4.86499 -6.10352e-05 4.06499 0.203016 2.86499 1.48917ZM17.1317 2.36917C17.865 2.91071 18.865 4.33225 19.265 5.48302C19.9983 7.58148 19.9317 7.58148 18.7983 6.56609C17.865 5.68609 16.265 5.41533 12.7983 5.41533C8.99832 5.41533 7.99832 5.21225 7.99832 4.39994C7.99832 3.8584 7.26499 3.24917 6.33166 2.9784C2.99832 2.0984 4.79832 1.35379 10.1983 1.35379C13.9983 1.35379 16.1317 1.69225 17.1317 2.36917ZM24.7317 6.97225C26.9983 10.2215 27.1317 11.3723 25.265 13.8092C23.3317 16.3138 21.9983 16.1107 21.9983 13.3353C21.9983 12.0492 21.5317 9.54456 20.9983 7.71686C19.7317 3.45225 19.7317 3.45225 21.3983 3.8584C22.1317 4.06148 23.665 5.48302 24.7317 6.97225ZM3.13166 7.17533C3.26499 11.9815 4.46499 14.08 7.66499 15.6369C9.19832 16.3815 11.1317 17.6676 11.9317 18.5476C13.665 20.443 16.265 31.5446 15.065 32.0861C14.5983 32.2892 14.5983 32.6276 15.265 33.0338C16.3317 33.7784 17.1983 41.9692 16.265 41.9692C14.465 41.9015 4.99832 38.6523 4.79832 38.043C4.73166 37.7046 5.19832 37.163 5.99832 36.8923C7.86499 36.283 9.99832 33.9138 9.99832 32.4246C9.99832 31.7476 10.5317 31.1384 11.1983 31.003C11.9317 30.8 11.065 30.0553 8.53166 28.7692C4.93166 26.9415 4.73166 26.6707 3.39832 22.4738C1.66499 17.1938 0.99832 11.3723 1.59832 7.17533C2.19832 3.18148 2.93166 3.18148 3.13166 7.17533ZM6.93166 4.67071C7.59832 5.75379 8.19832 11.3723 7.79832 12.4553C7.13165 14.2153 5.39832 12.8615 4.99832 10.2892C4.79832 8.86763 4.46499 6.97225 4.33165 5.88917C4.06499 4.46763 4.26499 4.06148 5.33166 4.06148C5.99832 4.06148 6.73166 4.33225 6.93166 4.67071ZM18.9983 9.07071C20.5317 11.9138 20.065 13.2 17.3317 13.8092C14.465 14.3507 10.465 14.283 9.66499 13.6738C9.33166 13.403 8.99832 11.7784 8.99832 9.95071L8.93166 6.76917H13.3983C17.7317 6.76917 17.7983 6.83686 18.9983 9.07071ZM21.3317 16.1784C21.3317 17.6 21.5317 19.6984 21.7317 20.7815C22.065 22.6769 21.9317 22.88 20.065 23.1507C18.1983 23.4215 17.9983 23.2861 17.5983 21.1876C17.3317 19.9015 16.3983 17.9384 15.5317 16.8553L13.865 14.8923H16.5983C18.065 14.8923 19.465 14.5538 19.665 14.2153C20.5317 12.7261 21.3317 13.6738 21.3317 16.1784ZM31.5983 15.5692C34.9317 17.1938 35.9983 19.0892 36.3983 24.3692L36.7317 28.0923L35.7983 25.723C35.265 24.4369 34.465 22 33.9317 20.3076C33.1983 17.9384 32.3983 16.9907 30.3317 15.7723C26.9983 13.8769 27.7317 13.7415 31.5983 15.5692ZM32.5983 19.563C32.9317 20.5107 33.465 22.0676 33.7317 22.9476L34.1317 24.5723L32.265 23.083C31.1983 22.2707 30.1317 20.9169 29.9317 20.1046C29.5983 18.7507 29.1983 18.6153 26.1317 18.8184C22.1983 19.0215 21.5317 17.9384 24.5317 16.1784C26.1983 15.2307 26.5317 15.2307 29.1317 16.4492C30.7983 17.2615 32.1983 18.5476 32.5983 19.563ZM14.5317 17.803C15.5983 18.8861 16.3317 21.1876 16.9983 25.1138C18.1317 31.7476 18.1317 31.8153 17.465 31.8153C17.1983 31.8153 16.3983 29.1753 15.7983 25.9261C15.1317 22.6769 13.9983 19.2246 13.265 18.1415C11.5983 15.84 12.5317 15.6369 14.5317 17.803ZM28.665 19.9015C28.665 20.0369 28.865 20.6461 29.065 21.2553C29.3983 22.1353 28.9317 22.3384 26.465 22.3384C22.9983 22.3384 21.7983 21.323 24.1317 20.3753C25.7317 19.6984 28.665 19.4276 28.665 19.9015ZM31.7317 24.4369C31.9317 24.7753 30.465 25.0461 28.5317 25.1138C26.5983 25.1138 23.5317 25.3846 21.7983 25.6553C20.065 25.9261 18.465 25.9261 18.265 25.5876C17.7317 24.7753 19.265 24.3015 24.465 23.76C29.1983 23.2861 31.1317 23.4215 31.7317 24.4369ZM22.7317 31.1384C23.465 35.8092 24.265 36.6892 27.265 36.1476C30.5983 35.5384 30.7983 35.3353 29.665 33.643C29.1317 32.8307 28.5317 30.8 28.265 29.1753C27.865 26.5353 27.9317 26.2646 29.065 26.5353C29.9317 26.6707 30.465 27.6184 30.7983 29.5815C31.5317 34.0492 32.3983 35.2 34.9983 35.2C37.3983 35.2 38.665 36.5538 38.665 39.1938C38.665 40.8184 38.065 41.0215 29.9983 41.9692C21.7983 43.0523 19.9983 42.443 19.9983 38.72C19.9983 37.2984 19.665 34.32 19.265 32.1538C18.5983 28.5661 18.665 28.0923 19.7317 27.28C21.3983 26.0615 22.065 27.0092 22.7317 31.1384ZM26.9983 28.9046C27.265 30.3261 27.665 32.1538 27.9983 32.9661C28.465 34.1846 28.3317 34.523 27.1983 34.8615C25.265 35.5384 24.1983 34.0492 23.7317 29.92C23.265 26.4676 23.3317 26.4 24.9317 26.4C26.3317 26.4 26.665 26.8061 26.9983 28.9046ZM34.9317 27.2123C35.1317 27.6861 35.3983 29.3784 35.5317 30.9353C35.7983 33.44 35.665 33.8461 34.5983 33.8461C33.1317 33.8461 32.3317 32.4246 31.7983 28.9046C31.465 26.603 31.5317 26.4 33.065 26.4C33.9983 26.4 34.7983 26.8061 34.9317 27.2123ZM7.33166 29.4461C9.39832 30.5292 9.59832 31.003 8.93166 32.763C8.33166 34.3876 7.46499 34.0492 5.99832 31.6123C3.93166 28.16 4.19832 27.7538 7.33166 29.4461ZM18.665 37.9753C18.665 43.3907 17.665 43.0523 17.5317 37.5692C17.465 34.9292 17.665 33.3046 18.065 33.5076C18.3983 33.7784 18.665 35.7415 18.665 37.9753ZM6.66499 34.9969C6.66499 35.3353 5.93166 35.8769 4.99832 36.3507C4.06499 36.7569 3.33166 36.8923 3.33166 36.6215C3.33166 36.283 3.99832 35.7415 4.86499 35.3353C6.73166 34.3876 6.66499 34.4553 6.66499 34.9969Z" stroke="white" stroke-width="0.6"/>
</mask>
<g mask="url(#mask0_152_871)">
<path d="M2.86499 1.48917C0.864986 3.65533 -0.20168 8.46148 0.264987 12.9292C0.731653 17.6 3.13165 27.9569 4.46499 31.1384C5.39832 33.3723 5.39832 33.5076 3.73166 34.7261C2.73166 35.4707 1.99832 36.6215 1.99832 37.5692C1.99832 38.923 2.53166 39.3292 5.66499 40.2092C7.66499 40.8184 10.9317 41.7661 12.865 42.3076C14.7317 42.8492 17.5317 43.323 18.9983 43.3907C26.3317 43.4584 31.3983 43.1876 35.3317 42.443L39.665 41.563L39.5317 38.6523C39.465 36.6215 38.9317 35.1323 37.865 33.9815C36.7983 32.8307 36.5983 32.2215 37.1983 32.0184C38.9983 31.3415 37.665 19.6984 35.3317 16.7876C34.665 15.9076 32.5983 14.6892 30.7317 13.9446C27.7983 12.8615 27.3983 12.523 27.7317 11.2369C28.265 9.00302 24.065 3.18148 21.5983 2.70763C20.5317 2.50456 18.5317 1.75994 17.1983 1.15071C15.5317 0.406093 12.9983 -6.10352e-05 9.46499 -6.10352e-05C4.86499 -6.10352e-05 4.06499 0.203016 2.86499 1.48917ZM17.1317 2.36917C17.865 2.91071 18.865 4.33225 19.265 5.48302C19.9983 7.58148 19.9317 7.58148 18.7983 6.56609C17.865 5.68609 16.265 5.41533 12.7983 5.41533C8.99832 5.41533 7.99832 5.21225 7.99832 4.39994C7.99832 3.8584 7.26499 3.24917 6.33166 2.9784C2.99832 2.0984 4.79832 1.35379 10.1983 1.35379C13.9983 1.35379 16.1317 1.69225 17.1317 2.36917ZM24.7317 6.97225C26.9983 10.2215 27.1317 11.3723 25.265 13.8092C23.3317 16.3138 21.9983 16.1107 21.9983 13.3353C21.9983 12.0492 21.5317 9.54456 20.9983 7.71686C19.7317 3.45225 19.7317 3.45225 21.3983 3.8584C22.1317 4.06148 23.665 5.48302 24.7317 6.97225ZM3.13166 7.17533C3.26499 11.9815 4.46499 14.08 7.66499 15.6369C9.19832 16.3815 11.1317 17.6676 11.9317 18.5476C13.665 20.443 16.265 31.5446 15.065 32.0861C14.5983 32.2892 14.5983 32.6276 15.265 33.0338C16.3317 33.7784 17.1983 41.9692 16.265 41.9692C14.465 41.9015 4.99832 38.6523 4.79832 38.043C4.73166 37.7046 5.19832 37.163 5.99832 36.8923C7.86499 36.283 9.99832 33.9138 9.99832 32.4246C9.99832 31.7476 10.5317 31.1384 11.1983 31.003C11.9317 30.8 11.065 30.0553 8.53166 28.7692C4.93166 26.9415 4.73166 26.6707 3.39832 22.4738C1.66499 17.1938 0.99832 11.3723 1.59832 7.17533C2.19832 3.18148 2.93166 3.18148 3.13166 7.17533ZM6.93166 4.67071C7.59832 5.75379 8.19832 11.3723 7.79832 12.4553C7.13165 14.2153 5.39832 12.8615 4.99832 10.2892C4.79832 8.86763 4.46499 6.97225 4.33165 5.88917C4.06499 4.46763 4.26499 4.06148 5.33166 4.06148C5.99832 4.06148 6.73166 4.33225 6.93166 4.67071ZM18.9983 9.07071C20.5317 11.9138 20.065 13.2 17.3317 13.8092C14.465 14.3507 10.465 14.283 9.66499 13.6738C9.33166 13.403 8.99832 11.7784 8.99832 9.95071L8.93166 6.76917H13.3983C17.7317 6.76917 17.7983 6.83686 18.9983 9.07071ZM21.3317 16.1784C21.3317 17.6 21.5317 19.6984 21.7317 20.7815C22.065 22.6769 21.9317 22.88 20.065 23.1507C18.1983 23.4215 17.9983 23.2861 17.5983 21.1876C17.3317 19.9015 16.3983 17.9384 15.5317 16.8553L13.865 14.8923H16.5983C18.065 14.8923 19.465 14.5538 19.665 14.2153C20.5317 12.7261 21.3317 13.6738 21.3317 16.1784ZM31.5983 15.5692C34.9317 17.1938 35.9983 19.0892 36.3983 24.3692L36.7317 28.0923L35.7983 25.723C35.265 24.4369 34.465 22 33.9317 20.3076C33.1983 17.9384 32.3983 16.9907 30.3317 15.7723C26.9983 13.8769 27.7317 13.7415 31.5983 15.5692ZM32.5983 19.563C32.9317 20.5107 33.465 22.0676 33.7317 22.9476L34.1317 24.5723L32.265 23.083C31.1983 22.2707 30.1317 20.9169 29.9317 20.1046C29.5983 18.7507 29.1983 18.6153 26.1317 18.8184C22.1983 19.0215 21.5317 17.9384 24.5317 16.1784C26.1983 15.2307 26.5317 15.2307 29.1317 16.4492C30.7983 17.2615 32.1983 18.5476 32.5983 19.563ZM14.5317 17.803C15.5983 18.8861 16.3317 21.1876 16.9983 25.1138C18.1317 31.7476 18.1317 31.8153 17.465 31.8153C17.1983 31.8153 16.3983 29.1753 15.7983 25.9261C15.1317 22.6769 13.9983 19.2246 13.265 18.1415C11.5983 15.84 12.5317 15.6369 14.5317 17.803ZM28.665 19.9015C28.665 20.0369 28.865 20.6461 29.065 21.2553C29.3983 22.1353 28.9317 22.3384 26.465 22.3384C22.9983 22.3384 21.7983 21.323 24.1317 20.3753C25.7317 19.6984 28.665 19.4276 28.665 19.9015ZM31.7317 24.4369C31.9317 24.7753 30.465 25.0461 28.5317 25.1138C26.5983 25.1138 23.5317 25.3846 21.7983 25.6553C20.065 25.9261 18.465 25.9261 18.265 25.5876C17.7317 24.7753 19.265 24.3015 24.465 23.76C29.1983 23.2861 31.1317 23.4215 31.7317 24.4369ZM22.7317 31.1384C23.465 35.8092 24.265 36.6892 27.265 36.1476C30.5983 35.5384 30.7983 35.3353 29.665 33.643C29.1317 32.8307 28.5317 30.8 28.265 29.1753C27.865 26.5353 27.9317 26.2646 29.065 26.5353C29.9317 26.6707 30.465 27.6184 30.7983 29.5815C31.5317 34.0492 32.3983 35.2 34.9983 35.2C37.3983 35.2 38.665 36.5538 38.665 39.1938C38.665 40.8184 38.065 41.0215 29.9983 41.9692C21.7983 43.0523 19.9983 42.443 19.9983 38.72C19.9983 37.2984 19.665 34.32 19.265 32.1538C18.5983 28.5661 18.665 28.0923 19.7317 27.28C21.3983 26.0615 22.065 27.0092 22.7317 31.1384ZM26.9983 28.9046C27.265 30.3261 27.665 32.1538 27.9983 32.9661C28.465 34.1846 28.3317 34.523 27.1983 34.8615C25.265 35.5384 24.1983 34.0492 23.7317 29.92C23.265 26.4676 23.3317 26.4 24.9317 26.4C26.3317 26.4 26.665 26.8061 26.9983 28.9046ZM34.9317 27.2123C35.1317 27.6861 35.3983 29.3784 35.5317 30.9353C35.7983 33.44 35.665 33.8461 34.5983 33.8461C33.1317 33.8461 32.3317 32.4246 31.7983 28.9046C31.465 26.603 31.5317 26.4 33.065 26.4C33.9983 26.4 34.7983 26.8061 34.9317 27.2123ZM7.33166 29.4461C9.39832 30.5292 9.59832 31.003 8.93166 32.763C8.33166 34.3876 7.46499 34.0492 5.99832 31.6123C3.93166 28.16 4.19832 27.7538 7.33166 29.4461ZM18.665 37.9753C18.665 43.3907 17.665 43.0523 17.5317 37.5692C17.465 34.9292 17.665 33.3046 18.065 33.5076C18.3983 33.7784 18.665 35.7415 18.665 37.9753ZM6.66499 34.9969C6.66499 35.3353 5.93166 35.8769 4.99832 36.3507C4.06499 36.7569 3.33166 36.8923 3.33166 36.6215C3.33166 36.283 3.99832 35.7415 4.86499 35.3353C6.73166 34.3876 6.66499 34.4553 6.66499 34.9969Z" stroke="#2A2A2A" stroke-width="0.6"/>
</g>
<path d="M6.93248 24.7076C7.66581 25.2492 8.73248 25.723 9.26581 25.723C10.1325 25.6553 10.0658 25.4523 9.06581 24.7076C8.33248 24.1661 7.26581 23.6923 6.73248 23.6923C5.86581 23.76 5.93248 23.963 6.93248 24.7076Z" fill="#2A2A2A"/>
</svg>
