<svg width="45" height="45" viewBox="0 0 45 45" fill="none" xmlns="http://www.w3.org/2000/svg">
<path d="M9.375 44.5312C6.2625 44.5312 3.3375 42.8813 1.7625 40.2C0.918747 38.85 0.46875 37.2563 0.46875 35.625C0.46875 30.7125 4.4625 26.7188 9.375 26.7188C14.2875 26.7188 18.2812 30.7125 18.2812 35.625C18.2812 37.2563 17.8313 38.85 16.9875 40.2188C15.4125 42.8813 12.4875 44.5312 9.375 44.5312ZM9.375 29.5312C6.01875 29.5312 3.28125 32.2688 3.28125 35.625C3.28125 36.7312 3.58125 37.8187 4.1625 38.7562C5.26875 40.6312 7.21875 41.7188 9.375 41.7188C11.5312 41.7188 13.4812 40.6125 14.5875 38.775C15.1687 37.8187 15.4688 36.75 15.4688 35.625C15.4688 32.2688 12.7312 29.5312 9.375 29.5312Z" fill="#2A2A2A"/>
<path d="M8.30469 38.8876C7.94844 38.8876 7.59219 38.7564 7.31094 38.4752L5.45469 36.6189C4.91094 36.0752 4.91094 35.1751 5.45469 34.6313C5.99844 34.0876 6.89844 34.0876 7.44219 34.6313L8.34219 35.5314L11.3422 32.7563C11.9047 32.2313 12.8047 32.2689 13.3297 32.8314C13.8547 33.3939 13.8172 34.2939 13.2547 34.8189L9.26093 38.5126C8.97968 38.7563 8.64219 38.8876 8.30469 38.8876Z" fill="#2A2A2A"/>
<path d="M11.6061 14.6437C11.1561 14.6437 10.7436 14.4374 10.4623 14.0624C10.1436 13.6312 10.1061 13.0686 10.3498 12.5999C10.6686 11.9624 11.1186 11.3437 11.6998 10.7812L17.7936 4.66864C20.9061 1.57489 25.9686 1.57489 29.0811 4.66864L32.3623 8.00619C33.7498 9.37495 34.5936 11.2124 34.6873 13.1624C34.7061 13.5937 34.5373 14.0061 34.2186 14.2874C33.8998 14.5686 33.4686 14.6999 33.0561 14.6249C32.6811 14.5686 32.2873 14.5499 31.8748 14.5499H13.1248C12.6748 14.5499 12.2436 14.5874 11.8123 14.6437C11.7561 14.6437 11.6811 14.6437 11.6061 14.6437ZM14.7373 11.7187H31.5373C31.2936 11.0812 30.8998 10.4999 30.3748 9.97492L27.0748 6.63737C25.0686 4.64987 21.7873 4.64987 19.7623 6.63737L14.7373 11.7187Z" fill="#2A2A2A"/>
<path d="M31.8754 42.6562H14.3066C13.7066 42.6562 13.1816 42.2813 12.9754 41.7375C12.7691 41.175 12.9379 40.5562 13.3879 40.1812C13.8379 39.8062 14.2504 39.3188 14.5504 38.7938C15.1504 37.8375 15.4504 36.75 15.4504 35.6438C15.4504 32.2875 12.7129 29.55 9.35665 29.55C7.61289 29.55 5.94414 30.3 4.78164 31.6312C4.38789 32.0625 3.76914 32.2313 3.22539 32.025C2.68164 31.8188 2.30664 31.2938 2.30664 30.7125V22.5C2.30664 16.725 5.86915 12.5438 11.4004 11.85C11.9066 11.775 12.4879 11.7188 13.0879 11.7188H31.8379C32.2879 11.7188 32.8691 11.7375 33.4691 11.8312C39.0004 12.4687 42.6192 16.6688 42.6192 22.5V31.875C42.6567 38.325 38.3254 42.6562 31.8754 42.6562ZM17.2129 39.8438H31.8754C36.7129 39.8438 39.8441 36.7125 39.8441 31.875V22.5C39.8441 18.1125 37.2754 15.0937 33.1129 14.6062C32.6629 14.5312 32.2691 14.5312 31.8754 14.5312H13.1254C12.6754 14.5312 12.2441 14.5687 11.8129 14.625C7.68789 15.15 5.15664 18.15 5.15664 22.5V27.7875C6.43164 27.0938 7.89414 26.7188 9.37539 26.7188C14.2879 26.7188 18.2816 30.7125 18.2816 35.625C18.2816 37.1063 17.9066 38.5687 17.2129 39.8438Z" fill="#2A2A2A"/>
<path d="M41.25 32.3438H35.625C32.775 32.3438 30.4688 30.0375 30.4688 27.1875C30.4688 24.3375 32.775 22.0312 35.625 22.0312H41.25C42.0187 22.0312 42.6562 22.6688 42.6562 23.4375C42.6562 24.2062 42.0187 24.8438 41.25 24.8438H35.625C34.3313 24.8438 33.2812 25.8938 33.2812 27.1875C33.2812 28.4812 34.3313 29.5312 35.625 29.5312H41.25C42.0187 29.5312 42.6562 30.1688 42.6562 30.9375C42.6562 31.7062 42.0187 32.3438 41.25 32.3438Z" fill="#2A2A2A"/>
</svg>
