<svg width="72" height="773" viewBox="0 0 72 773" fill="none" xmlns="http://www.w3.org/2000/svg">
<g clip-path="url(#clip0_2121_1044)">
<circle cx="36.0819" cy="35.9168" r="34.6665" stroke="#3C3C3C" stroke-width="2.16667"/>
<path d="M37.5894 48.334H34.6427V30.7233H28.264V28.366C29.096 28.366 29.9049 28.3082 30.6907 28.1926C31.4765 28.054 32.1814 27.8113 32.8054 27.4646C33.4525 27.118 33.9956 26.6442 34.4347 26.0433C34.8738 25.4424 35.1743 24.6798 35.336 23.7553H37.5894V48.334Z" fill="#2468FF"/>
<circle cx="36.0819" cy="211.417" r="34.6665" stroke="#3C3C3C" stroke-width="2.16667"/>
<path d="M26.7734 207.956C26.704 206.708 26.8312 205.553 27.1547 204.49C27.4783 203.427 27.9752 202.514 28.6454 201.751C29.3387 200.965 30.1938 200.353 31.2107 199.914C32.2276 199.475 33.3832 199.255 34.6774 199.255C35.7405 199.255 36.7343 199.417 37.6587 199.74C38.6063 200.041 39.4267 200.491 40.12 201.092C40.8134 201.67 41.3565 202.398 41.7494 203.276C42.1654 204.155 42.3734 205.171 42.3734 206.327C42.3734 207.413 42.2001 208.372 41.8534 209.204C41.5298 210.036 41.0907 210.787 40.536 211.458C39.9814 212.105 39.3458 212.694 38.6294 213.226C37.9129 213.757 37.1734 214.266 36.4107 214.751C35.648 215.213 34.8854 215.675 34.1227 216.138C33.36 216.577 32.6552 217.051 32.008 217.559C31.384 218.067 30.8409 218.622 30.3787 219.223C29.9396 219.801 29.6507 220.471 29.512 221.234H42.1307V223.834H26.08C26.1956 222.378 26.4498 221.141 26.8427 220.124C27.2587 219.084 27.7787 218.183 28.4027 217.42C29.0267 216.658 29.7316 215.987 30.5174 215.41C31.3032 214.832 32.1236 214.289 32.9787 213.78C34.0187 213.133 34.9316 212.544 35.7174 212.012C36.5032 211.458 37.1503 210.903 37.6587 210.348C38.1903 209.794 38.5832 209.193 38.8374 208.546C39.1147 207.899 39.2534 207.147 39.2534 206.292C39.2534 205.622 39.1263 205.021 38.872 204.49C38.6178 203.935 38.2712 203.461 37.832 203.068C37.416 202.675 36.9192 202.375 36.3414 202.167C35.7636 201.959 35.1512 201.855 34.504 201.855C33.6489 201.855 32.9094 202.04 32.2854 202.41C31.6845 202.756 31.1876 203.219 30.7947 203.796C30.4018 204.374 30.1129 205.033 29.928 205.772C29.7663 206.489 29.6969 207.217 29.72 207.956H26.7734Z" fill="#2468FF"/>
<circle cx="35.7498" cy="460.75" r="34.6665" stroke="#3C3C3C" stroke-width="2.16667"/>
<path d="M32.4734 459.127C32.5889 459.15 32.6929 459.162 32.7854 459.162C32.9009 459.162 33.0165 459.162 33.132 459.162H33.756C34.38 459.162 34.9694 459.081 35.524 458.919C36.1018 458.734 36.5987 458.48 37.0147 458.156C37.4538 457.81 37.8005 457.382 38.0547 456.874C38.3089 456.365 38.436 455.788 38.436 455.14C38.436 453.823 38.02 452.841 37.188 452.194C36.356 451.524 35.316 451.188 34.068 451.188C33.2822 451.188 32.5889 451.339 31.988 451.639C31.4102 451.916 30.9249 452.298 30.532 452.783C30.1622 453.268 29.8849 453.835 29.7 454.482C29.5151 455.129 29.4227 455.811 29.4227 456.527H26.476C26.5222 455.348 26.7071 454.274 27.0307 453.303C27.3773 452.332 27.8627 451.5 28.4867 450.807C29.1107 450.114 29.8849 449.571 30.8093 449.178C31.7569 448.785 32.8431 448.588 34.068 448.588C35.1311 448.588 36.1134 448.727 37.0147 449.004C37.9391 449.259 38.7365 449.652 39.4067 450.183C40.0769 450.715 40.5969 451.396 40.9667 452.228C41.3596 453.06 41.556 454.043 41.556 455.175C41.556 456.284 41.2325 457.267 40.5854 458.122C39.9382 458.977 39.1294 459.624 38.1587 460.063V460.132C39.6609 460.456 40.7702 461.161 41.4867 462.247C42.2262 463.333 42.596 464.616 42.596 466.095C42.596 467.32 42.3649 468.406 41.9027 469.354C41.4636 470.278 40.8627 471.052 40.1 471.676C39.3374 472.3 38.436 472.774 37.396 473.098C36.3791 473.398 35.2929 473.548 34.1374 473.548C32.8894 473.548 31.7569 473.375 30.74 473.028C29.7231 472.682 28.8565 472.173 28.14 471.503C27.4236 470.81 26.8689 469.966 26.476 468.972C26.1062 467.979 25.9329 466.846 25.956 465.575H28.9027C28.9489 467.17 29.4111 468.476 30.2893 469.492C31.1676 470.486 32.4502 470.983 34.1374 470.983C34.8538 470.983 35.5356 470.879 36.1827 470.671C36.8298 470.44 37.396 470.128 37.8814 469.735C38.3667 469.319 38.748 468.822 39.0254 468.244C39.3258 467.644 39.476 466.973 39.476 466.234C39.476 465.471 39.3374 464.801 39.06 464.223C38.7827 463.622 38.4129 463.125 37.9507 462.732C37.4885 462.316 36.9338 462.016 36.2867 461.831C35.6627 461.623 34.9809 461.519 34.2414 461.519C33.6174 461.519 33.028 461.554 32.4734 461.623V459.127Z" fill="#2468FF"/>
<circle cx="36.0819" cy="736.416" r="34.6665" stroke="#3C3C3C" stroke-width="2.16667"/>
<path d="M37 740.478V728.449H36.9307L28.7494 740.478H37ZM39.7734 740.478H43.1014V743.078H39.7734V748.833H37V743.078H26.2187V740.236L37.416 724.254H39.7734V740.478Z" fill="#2468FF"/>
<line x1="37" y1="247" x2="37" y2="425" stroke="#3C3C3C" stroke-width="2"/>
<line x1="37" y1="496" x2="37" y2="701" stroke="#3C3C3C" stroke-width="2"/>
<line x1="37" y1="72" x2="37" y2="176" stroke="#3C3C3C" stroke-width="2"/>
</g>
<defs>
<clipPath id="clip0_2121_1044">
<rect width="71.8317" height="771.999" fill="white" transform="translate(0 0.166992)"/>
</clipPath>
</defs>
</svg>
