<svg width="42" height="716" viewBox="0 0 42 716" fill="none" xmlns="http://www.w3.org/2000/svg">
<circle cx="21" cy="20.998" r="20.3636" stroke="#3C3C3C" stroke-width="1.27274"/>
<path d="M21.8862 28.9075H20.1553V18.5626H16.4084V17.1779C16.8971 17.1779 17.3723 17.144 17.8338 17.0761C18.2954 16.9946 18.7095 16.8521 19.076 16.6484C19.4562 16.4448 19.7752 16.1665 20.0331 15.8135C20.2911 15.4605 20.4676 15.0125 20.5626 14.4695H21.8862V28.9075Z" fill="#2468FF"/>
<line x1="21.5" y1="42" x2="21.5" y2="139" stroke="#3C3C3C"/>
<circle cx="21" cy="160" r="20.3636" stroke="#3C3C3C" stroke-width="1.27273"/>
<path d="M15.5327 158.583C15.492 157.849 15.5667 157.171 15.7567 156.546C15.9468 155.922 16.2387 155.385 16.6324 154.937C17.0396 154.476 17.5419 154.116 18.1393 153.858C18.7366 153.6 19.4154 153.471 20.1757 153.471C20.8001 153.471 21.3839 153.566 21.9269 153.756C22.4835 153.933 22.9655 154.198 23.3728 154.551C23.78 154.89 24.0991 155.318 24.3299 155.833C24.5742 156.349 24.6964 156.947 24.6964 157.625C24.6964 158.264 24.5946 158.827 24.3909 159.316C24.2009 159.804 23.9429 160.246 23.6171 160.639C23.2913 161.019 22.918 161.366 22.4971 161.678C22.0763 161.99 21.6418 162.289 21.1938 162.574C20.7458 162.845 20.2978 163.117 19.8498 163.388C19.4018 163.646 18.9878 163.925 18.6076 164.223C18.2411 164.522 17.9221 164.848 17.6506 165.201C17.3926 165.54 17.2229 165.934 17.1415 166.382H24.5539V167.909H15.1254C15.1933 167.054 15.3427 166.328 15.5735 165.73C15.8178 165.119 16.1233 164.59 16.4898 164.142C16.8564 163.694 17.2704 163.3 17.732 162.961C18.1936 162.621 18.6755 162.302 19.1778 162.004C19.7887 161.624 20.325 161.277 20.7866 160.965C21.2481 160.639 21.6283 160.314 21.9269 159.988C22.2392 159.662 22.47 159.309 22.6193 158.929C22.7822 158.549 22.8637 158.107 22.8637 157.605C22.8637 157.211 22.789 156.858 22.6397 156.546C22.4903 156.22 22.2867 155.942 22.0288 155.711C21.7844 155.481 21.4925 155.304 21.1531 155.182C20.8137 155.06 20.454 154.999 20.0738 154.999C19.5715 154.999 19.1371 155.107 18.7706 155.324C18.4176 155.528 18.1257 155.8 17.8949 156.139C17.6641 156.478 17.4944 156.865 17.3858 157.3C17.2908 157.721 17.2501 158.148 17.2636 158.583H15.5327Z" fill="#2468FF"/>
<line x1="21.5" y1="181" x2="21.5" y2="411" stroke="#3C3C3C"/>
<line x1="21.5" y1="453" x2="21.5" y2="674" stroke="#3C3C3C"/>
<circle cx="21.0011" cy="432.001" r="20.3647" stroke="#3C3C3C" stroke-width="1.27281"/>
<path d="M19.0763 431.662C19.1442 431.676 19.2053 431.683 19.2596 431.683C19.3275 431.683 19.3953 431.683 19.4632 431.683H19.8298C20.1964 431.683 20.5426 431.635 20.8684 431.54C21.2078 431.431 21.4997 431.282 21.7441 431.092C22.0021 430.888 22.2057 430.637 22.3551 430.338C22.5044 430.04 22.5791 429.7 22.5791 429.32C22.5791 428.546 22.3347 427.969 21.8459 427.589C21.3572 427.195 20.7462 426.999 20.0131 426.999C19.5515 426.999 19.1442 427.087 18.7912 427.263C18.4518 427.426 18.1667 427.65 17.9358 427.935C17.7186 428.221 17.5557 428.553 17.4471 428.933C17.3385 429.313 17.2842 429.714 17.2842 430.135H15.5531C15.5803 429.442 15.6889 428.811 15.879 428.241C16.0826 427.671 16.3677 427.182 16.7343 426.775C17.1009 426.367 17.5557 426.048 18.0988 425.817C18.6554 425.587 19.2935 425.471 20.0131 425.471C20.6376 425.471 21.2146 425.553 21.7441 425.716C22.2872 425.865 22.7556 426.096 23.1493 426.408C23.543 426.72 23.8485 427.121 24.0657 427.61C24.2965 428.098 24.4119 428.675 24.4119 429.341C24.4119 429.992 24.2218 430.569 23.8417 431.072C23.4616 431.574 22.9864 431.954 22.4162 432.212V432.253C23.2986 432.443 23.9503 432.857 24.3712 433.495C24.8056 434.133 25.0229 434.887 25.0229 435.756C25.0229 436.475 24.8871 437.113 24.6156 437.67C24.3576 438.213 24.0046 438.668 23.5566 439.034C23.1086 439.401 22.5791 439.679 21.9681 439.869C21.3707 440.046 20.7326 440.134 20.0538 440.134C19.3207 440.134 18.6554 440.032 18.058 439.829C17.4607 439.625 16.9515 439.326 16.5307 438.933C16.1098 438.525 15.7839 438.03 15.5531 437.446C15.3359 436.862 15.2341 436.197 15.2477 435.45H16.9787C17.0058 436.387 17.2774 437.154 17.7933 437.751C18.3092 438.335 19.0627 438.627 20.0538 438.627C20.4747 438.627 20.8752 438.566 21.2553 438.444C21.6355 438.308 21.9681 438.125 22.2532 437.894C22.5383 437.65 22.7624 437.358 22.9253 437.018C23.1018 436.665 23.19 436.271 23.19 435.837C23.19 435.389 23.1086 434.995 22.9456 434.656C22.7827 434.303 22.5655 434.011 22.294 433.78C22.0224 433.536 21.6966 433.359 21.3164 433.251C20.9499 433.128 20.5494 433.067 20.1149 433.067C19.7483 433.067 19.4021 433.088 19.0763 433.128V431.662Z" fill="#2468FF"/>
<circle cx="21" cy="695" r="20.3636" stroke="#3C3C3C" stroke-width="1.27276"/>
<path d="M21.5402 698.001V690.935H21.4994L16.6935 698.001H21.5402ZM23.1693 698.001H25.1243V699.529H23.1693V702.909H21.5402V699.529H15.2069V697.859L21.7845 688.471H23.1693V698.001Z" fill="#2468FF"/>
</svg>
